<svg xmlns="http://www.w3.org/2000/svg" viewBox="0 0 14.96 14"><defs><style>.cls-1{fill:#1e4fad;}.cls-2{fill:#fff;fill-rule:evenodd;}</style></defs><title>Asset 2</title><g id="Layer_2" data-name="Layer 2"><g id="Layer_1-2" data-name="Layer 1"><path class="cls-1" d="M15,0H0V14H15Z"/><path class="cls-2" d="M8.41,4.69c.2,0,.41,0,.61,0h.09V3.62l-.34,0c-.21,0-.42,0-.63,0a1.59,1.59,0,0,0-.9.27,1.39,1.39,0,0,0-.54.9,3.44,3.44,0,0,0,0,.46c0,.24,0,.48,0,.72V6h-1V7.2h1v3H7.9v-3h1L9.07,6H7.9s0-.6,0-.85S8.12,4.7,8.41,4.69Z"/></g></g></svg>