<svg xmlns="http://www.w3.org/2000/svg" xmlns:xlink="http://www.w3.org/1999/xlink" viewBox="0 0 15.15 14"><defs><style>.cls-1{fill:url(#linear-gradient);}.cls-2{fill:#fff;}</style><linearGradient id="linear-gradient" x1="0.71" y1="-0.56" x2="15.2" y2="15.4" gradientUnits="userSpaceOnUse"><stop offset="0" stop-color="#3542e0"/><stop offset="0" stop-color="#3841df"/><stop offset="0" stop-color="#403fda"/><stop offset="0" stop-color="#4e3cd2"/><stop offset="0" stop-color="#6337c7"/><stop offset="0" stop-color="#7d31b9"/><stop offset="0" stop-color="#9e2aa8"/><stop offset="0" stop-color="#c32193"/><stop offset="0" stop-color="#c82091"/><stop offset="0.52" stop-color="#f62b37"/><stop offset="1" stop-color="#ffc658"/></linearGradient></defs><title>Asset 5</title><g id="Layer_2" data-name="Layer 2"><g id="Layer_1-2" data-name="Layer 1"><path class="cls-1" d="M15.15,0H0V14H15.15Z"/><path class="cls-2" d="M10.19,5.34a1.73,1.73,0,0,0-.5-1.09,1.69,1.69,0,0,0-1.14-.47,20.8,20.8,0,0,0-3.07,0A1.59,1.59,0,0,0,4.13,5.05a19.47,19.47,0,0,0,0,3.58A1.61,1.61,0,0,0,5.35,10a18,18,0,0,0,3.44,0,1.6,1.6,0,0,0,1.36-1.28A20.74,20.74,0,0,0,10.19,5.34ZM9.62,8.53a1.09,1.09,0,0,1-1,1,18.94,18.94,0,0,1-3.2-.05,1,1,0,0,1-.78-.9,23,23,0,0,1,0-3.22,1.07,1.07,0,0,1,1-1,19.4,19.4,0,0,1,3.05,0,1.06,1.06,0,0,1,.94,1A23.37,23.37,0,0,1,9.62,8.53ZM7.13,5.29a1.64,1.64,0,1,0,1.6,1.64A1.62,1.62,0,0,0,7.13,5.29Zm0,2.7a1.06,1.06,0,1,1,1-1.06A1,1,0,0,1,7.12,8Zm2-2.76a.37.37,0,0,1-.37.38.38.38,0,0,1,0-.76A.37.37,0,0,1,9.16,5.23Z"/></g></g></svg>