<svg xmlns="http://www.w3.org/2000/svg" viewBox="0 0 146.27 135.49"><defs><style>.cls-1{stroke:#222221;stroke-miterlimit:10;}.cls-2{fill:#010201;}.cls-3{fill:#fff;}.cls-4{fill:#cb1c54;}.cls-5{fill:#6abac5;}</style></defs><title>tiktok_1</title><g id="Layer_2" data-name="Layer 2"><g id="Graphic_Elements" data-name="Graphic Elements"><rect class="cls-1" x="0.5" y="0.59" width="145.27" height="134.4"/><circle class="cls-2" cx="72.41" cy="67.5" r="67.5"/><path class="cls-3" d="M54.39,94.59l.24.22c.75.54,1.29,1.29,2,1.86a13,13,0,0,0,7.58,2.93A12.85,12.85,0,0,0,77.67,88.21a8.19,8.19,0,0,0,0-1V26.65c0-1.37,0-1.37,1.36-1.37h9.2a1.38,1.38,0,0,1,.85.12l.06.05a1,1,0,0,1,.23.54,21.23,21.23,0,0,0,8.53,13.06c.28.21.52.47.79.68l.58.5a13,13,0,0,1,1.87,1.6,21.15,21.15,0,0,0,8.42,4.3c.27.07.59.07.79.33a.1.1,0,0,0,.05,0,.91.91,0,0,1,.15.68c0,3.56,0,7.12,0,10.68,0,.81-.11.85-.93.85a34,34,0,0,1-7.71-.93,36.77,36.77,0,0,1-12.1-5.21c-.2-.13-.41-.4-.61-.31s-.13.46-.13.7c0,10,0,20,0,30.07a28.65,28.65,0,0,1-25.35,28.48,28.33,28.33,0,0,1-16.31-2.88A14.2,14.2,0,0,1,45,107.18l-.7-.62a19.38,19.38,0,0,1-4.17-5.32A28.64,28.64,0,0,1,36.3,85.62,28.64,28.64,0,0,1,55.86,59.73a25.9,25.9,0,0,1,6.59-1.34,8.66,8.66,0,0,1,1.25-.1.88.88,0,0,1,.57.13l.07,0a1.28,1.28,0,0,1,.09.64V69.94c0,.13,0,.25,0,.38,0,.36-.2.49-.55.39a14.07,14.07,0,0,0-3-.47,11.72,11.72,0,0,0-4.63.69c-5,1.83-8,5.39-8.61,10.63S49,90.85,53.33,93.83C53.69,94.08,54.06,94.31,54.39,94.59Z"/><path class="cls-4" d="M45,107.18c.19-.05.3.1.43.19a28.62,28.62,0,0,0,10.45,3.85,26.92,26.92,0,0,0,5.67.33A28.55,28.55,0,0,0,88,90.26a27.56,27.56,0,0,0,.87-5.72c.06-1.11,0-2.22,0-3.34V51.9c.25-.07.36.12.5.21a36.5,36.5,0,0,0,11.06,5.15,37.51,37.51,0,0,0,6.66,1.2c1,.08,1.89.07,2.84.14.42,0,.42,0,.43-.42V47.11c0-.2,0-.4,0-.6.85.1,1.69.28,2.54.35.53,0,1.06.08,1.59.07.26,0,.37.08.34.34,0,.11,0,.22,0,.33V61.9c0,.41,0,.42-.44.42a33.65,33.65,0,0,1-4.37-.3,36.64,36.64,0,0,1-8.62-2.2,37.15,37.15,0,0,1-7.53-4l-.52-.34v.66q0,15.32,0,30.62a28.45,28.45,0,0,1-30.49,28.43,28.21,28.21,0,0,1-17.51-7.63A4.73,4.73,0,0,1,45,107.18Z"/><path class="cls-5" d="M89.11,25.41c-.2,0-.4,0-.6,0H78.65c-.76,0-.76,0-.76.74q0,30.14,0,60.26a12.88,12.88,0,0,1-.54,4.1,12.52,12.52,0,0,1-9.52,8.9c-5.17,1.18-9.56-.39-13-4.4a1.82,1.82,0,0,1-.15-.23,17.41,17.41,0,0,0,3.06,1,13,13,0,0,0,15.7-12.91q0-30.19,0-60.38c0-.93-.13-.82.81-.82H88.44c.47,0,.48,0,.48.49A15.65,15.65,0,0,0,89.11,25.41Z"/><path class="cls-5" d="M64.27,58.42A29,29,0,0,0,56,59.86,28.56,28.56,0,0,0,37.46,79.2a27.71,27.71,0,0,0-1,5.65,28.24,28.24,0,0,0,0,3.44,27.92,27.92,0,0,0,2,9.23,28.24,28.24,0,0,0,5.71,8.86c0,.05.08.12.13.18a6.39,6.39,0,0,1-1.48-1,28.31,28.31,0,0,1-9.64-13.86,27.77,27.77,0,0,1-1.19-6A27.32,27.32,0,0,1,32,81.26a28.34,28.34,0,0,1,8.44-18.38,28.3,28.3,0,0,1,17.87-8.09,28.53,28.53,0,0,1,5.62.13c.26,0,.41.08.4.38C64.28,56.34,64.28,57.38,64.27,58.42Z"/><path class="cls-4" d="M54.39,94.59a10.82,10.82,0,0,1-3-2.12,12.7,12.7,0,0,1-3.94-7.92,13,13,0,0,1,16.42-14,.76.76,0,0,0,.42.06,1.52,1.52,0,0,0,0-.6c0-3.65,0-7.3,0-11,0-.2,0-.4,0-.6a22.69,22.69,0,0,1,4.2.19c.22,0,.28.12.27.32V73.81a.9.9,0,0,1-.07.55c-.63-.12-1.26-.31-1.91-.4a12.79,12.79,0,0,0-10.06,2.68,12.43,12.43,0,0,0-4.74,8,12.72,12.72,0,0,0,2.13,9.57Z"/><path class="cls-4" d="M98.72,39.74A17.88,17.88,0,0,1,95,36.69a21.22,21.22,0,0,1-5.78-11.13.34.34,0,0,1,0-.1c1.31-.08,2.62,0,3.93,0,.24,0,.34.09.32.32a2.62,2.62,0,0,0,0,.28,19.6,19.6,0,0,0,2.82,10.2,20.42,20.42,0,0,0,2.24,3.17C98.57,39.5,98.7,39.58,98.72,39.74Z"/><path class="cls-5" d="M110.38,46.47a21.36,21.36,0,0,1-9.89-5,7.94,7.94,0,0,1-1.19-1.2.63.63,0,0,1,.35.13A21.73,21.73,0,0,0,106.92,43a18.17,18.17,0,0,0,3,.26c.43,0,.44,0,.44.42C110.4,44.58,110.38,45.52,110.38,46.47Z"/></g></g></svg>