<svg xmlns="http://www.w3.org/2000/svg" viewBox="0 0 14.96 14"><defs><style>.cls-1{fill:#1ba5d4;}.cls-2{fill:#fff;fill-rule:evenodd;}</style></defs><title>Asset 3</title><g id="Layer_2" data-name="Layer 2"><g id="Layer_1-2" data-name="Layer 1"><path class="cls-1" d="M15,0H0V14H15Z"/><path class="cls-2" d="M6.16,8.29A1.27,1.27,0,0,1,5,7.41a1.1,1.1,0,0,0,.54,0h0a1.3,1.3,0,0,1-.82-.58,1.25,1.25,0,0,1-.19-.68,1.28,1.28,0,0,0,.56.16,1.37,1.37,0,0,1-.52-.77,1.25,1.25,0,0,1,.14-.91A3.66,3.66,0,0,0,7.33,5.93a.78.78,0,0,1,0-.14A1.21,1.21,0,0,1,7.49,5a1.23,1.23,0,0,1,.86-.57,1.25,1.25,0,0,1,1.11.35s0,0,.06,0a2.46,2.46,0,0,0,.74-.28h0a1.32,1.32,0,0,1-.54.69A2.49,2.49,0,0,0,10.45,5h0l-.14.19a2.73,2.73,0,0,1-.46.44s0,0,0,0a5.12,5.12,0,0,1,0,.56,4.05,4.05,0,0,1-.32,1.13,3.59,3.59,0,0,1-.69,1,3.37,3.37,0,0,1-1.73,1,4.31,4.31,0,0,1-.71.09,3.6,3.6,0,0,1-2-.55l0,0a2.56,2.56,0,0,0,1.26-.17A2.25,2.25,0,0,0,6.16,8.29Z"/></g></g></svg>