<svg xmlns="http://www.w3.org/2000/svg" viewBox="0 0 14.96 14"><defs><style>.cls-1{fill:#fd3832;}.cls-2{fill:#fff;fill-rule:evenodd;}</style></defs><title>Asset 4</title><g id="Layer_2" data-name="Layer 2"><g id="Layer_1-2" data-name="Layer 1"><path class="cls-1" d="M15,0H0V14H15Z"/><path class="cls-2" d="M4.65,9.16a.81.81,0,0,1-.53-.52c-.23-.62-.3-3.25.14-3.77a.87.87,0,0,1,.58-.3,32,32,0,0,1,5.26,0,.81.81,0,0,1,.52.5,8.23,8.23,0,0,1,0,3.63.85.85,0,0,1-.37.38A24.64,24.64,0,0,1,4.65,9.16ZM6.53,7.92l2.13-1.1L6.53,5.71Z"/></g></g></svg>