<svg width="24" height="25" viewBox="0 0 24 25" fill="none" xmlns="http://www.w3.org/2000/svg">
<path d="M20.0297 7.59746C20.1703 7.73809 20.25 7.92793 20.25 8.12715V22.5811C20.25 22.9959 19.9148 23.3311 19.5 23.3311H4.5C4.08516 23.3311 3.75 22.9959 3.75 22.5811V3.08105C3.75 2.66621 4.08516 2.33105 4.5 2.33105H14.4539C14.6531 2.33105 14.8453 2.41074 14.9859 2.55137L20.0297 7.59746ZM18.5203 8.47168L14.1094 4.06074V8.47168H18.5203ZM14.8411 15.7668C14.4853 15.7551 14.107 15.7825 13.6774 15.8362C13.1079 15.4849 12.7245 15.0023 12.4521 14.2933L12.4772 14.1907L12.5062 14.0693C12.607 13.6443 12.6612 13.3343 12.6773 13.0216C12.6895 12.7856 12.6764 12.5679 12.6345 12.3661C12.5571 11.9304 12.2489 11.6756 11.8605 11.6599C11.4984 11.6451 11.1656 11.8474 11.0805 12.1607C10.942 12.6675 11.0231 13.3343 11.3168 14.4714C10.9427 15.3632 10.4484 16.4088 10.1168 16.9919C9.67406 17.2202 9.3293 17.4279 9.03961 17.658C8.65758 17.962 8.41898 18.2744 8.35336 18.6025C8.32148 18.7546 8.36953 18.9534 8.47898 19.1163C8.6032 19.301 8.79023 19.421 9.01453 19.4383C9.58055 19.4821 10.2762 18.8986 11.0442 17.5807C11.1213 17.5549 11.2029 17.5277 11.3025 17.4939L11.5814 17.3997C11.7579 17.3402 11.8859 17.2975 12.0124 17.2565C12.5609 17.0779 12.9757 16.9652 13.353 16.901C14.0088 17.2521 14.7668 17.4822 15.2773 17.4822C15.6987 17.4822 15.9834 17.2638 16.0863 16.92C16.1766 16.6181 16.1051 16.2679 15.911 16.0743C15.7104 15.8772 15.3415 15.783 14.8411 15.7668ZM9.02883 18.7767V18.7682L9.03187 18.7603C9.06617 18.6716 9.11019 18.587 9.16313 18.5081C9.26344 18.3539 9.40148 18.1917 9.57258 18.0189C9.66445 17.9264 9.76008 17.8361 9.87234 17.7349C9.89742 17.7124 10.0577 17.5696 10.0877 17.5415L10.3495 17.2978L10.1592 17.6008C9.87047 18.0611 9.60938 18.3925 9.38578 18.6086C9.30352 18.6883 9.23109 18.7469 9.1725 18.7846C9.15316 18.7976 9.13268 18.8087 9.11133 18.8179C9.10172 18.8219 9.09328 18.8243 9.08484 18.825C9.07594 18.8261 9.06689 18.8249 9.05859 18.8214C9.04977 18.8177 9.04224 18.8115 9.03694 18.8036C9.03165 18.7956 9.02882 18.7862 9.02883 18.7767ZM11.9805 13.6607L11.9276 13.7545L11.8948 13.6518C11.8221 13.4214 11.7687 13.0743 11.7539 12.7612C11.737 12.405 11.7654 12.1912 11.8779 12.1912C12.0359 12.1912 12.1083 12.4443 12.1139 12.8252C12.1191 13.1599 12.0663 13.5082 11.9803 13.6607H11.9805ZM11.8444 15.0309L11.8802 14.936L11.9292 15.025C12.2032 15.5229 12.5588 15.9382 12.9497 16.2276L13.0341 16.29L12.9312 16.3111C12.5484 16.3903 12.192 16.5093 11.7045 16.706C11.7553 16.6854 11.1977 16.9136 11.0566 16.9678L10.9336 17.0149L10.9992 16.9005C11.2887 16.3966 11.5561 15.7914 11.8441 15.0309H11.8444ZM15.5386 16.8182C15.3544 16.8909 14.9578 16.826 14.2596 16.5279L14.0824 16.4524L14.2746 16.4383C14.8207 16.3978 15.2074 16.4278 15.4329 16.5103C15.529 16.5454 15.593 16.5897 15.6213 16.6404C15.6363 16.6643 15.6413 16.6931 15.6353 16.7207C15.6294 16.7483 15.6129 16.7726 15.5895 16.7882C15.5746 16.8014 15.5573 16.8115 15.5386 16.8182Z" fill="#EB5757"/>
</svg>
