<svg width="28" height="28" viewBox="0 0 28 28" fill="none" xmlns="http://www.w3.org/2000/svg">
<g filter="url(#filter0_di_3_150)">
<rect x="2" width="24" height="24" rx="12" fill="#599345"/>
<path d="M18.293 7.29298L12 13.586L9.70704 11.293C9.51844 11.1108 9.26584 11.01 9.00364 11.0123C8.74144 11.0146 8.49063 11.1198 8.30522 11.3052C8.11981 11.4906 8.01465 11.7414 8.01237 12.0036C8.01009 12.2658 8.11088 12.5184 8.29304 12.707L11.293 15.707C11.4806 15.8945 11.7349 15.9998 12 15.9998C12.2652 15.9998 12.5195 15.8945 12.707 15.707L19.707 8.70698C19.8892 8.51838 19.99 8.26578 19.9877 8.00358C19.9854 7.74138 19.8803 7.49057 19.6949 7.30516C19.5095 7.11975 19.2586 7.01458 18.9964 7.01231C18.7342 7.01003 18.4816 7.11082 18.293 7.29298Z" fill="white"/>
</g>
<defs>
<filter id="filter0_di_3_150" x="0" y="-1" width="28" height="29" filterUnits="userSpaceOnUse" color-interpolation-filters="sRGB">
<feFlood flood-opacity="0" result="BackgroundImageFix"/>
<feColorMatrix in="SourceAlpha" type="matrix" values="0 0 0 0 0 0 0 0 0 0 0 0 0 0 0 0 0 0 127 0" result="hardAlpha"/>
<feOffset dy="2"/>
<feGaussianBlur stdDeviation="1"/>
<feColorMatrix type="matrix" values="0 0 0 0 0.854902 0 0 0 0 0.890196 0 0 0 0 0.882353 0 0 0 0.1 0"/>
<feBlend mode="normal" in2="BackgroundImageFix" result="effect1_dropShadow_3_150"/>
<feBlend mode="normal" in="SourceGraphic" in2="effect1_dropShadow_3_150" result="shape"/>
<feColorMatrix in="SourceAlpha" type="matrix" values="0 0 0 0 0 0 0 0 0 0 0 0 0 0 0 0 0 0 127 0" result="hardAlpha"/>
<feOffset dy="-1"/>
<feGaussianBlur stdDeviation="0.5"/>
<feComposite in2="hardAlpha" operator="arithmetic" k2="-1" k3="1"/>
<feColorMatrix type="matrix" values="0 0 0 0 0.854902 0 0 0 0 0.890196 0 0 0 0 0.882353 0 0 0 0.15 0"/>
<feBlend mode="normal" in2="shape" result="effect2_innerShadow_3_150"/>
</filter>
</defs>
</svg>
