<svg width="56" height="57" viewBox="0 0 56 57" fill="none" xmlns="http://www.w3.org/2000/svg">
<g clip-path="url(#clip0_226_1289)">
<path d="M28 35.8311C31.866 35.8311 35 32.697 35 28.8311C35 24.9651 31.866 21.8311 28 21.8311C24.134 21.8311 21 24.9651 21 28.8311C21 32.697 24.134 35.8311 28 35.8311Z" fill="#EDA44D"/>
<path opacity="0.35" d="M9.401 21.0774C8.512 20.1907 7 20.8254 7 22.083V24.1644H2.33333C1.04533 24.1644 0 25.2097 0 26.4977V31.1644C0 32.4524 1.04533 33.4977 2.33333 33.4977H7V35.5767C7 36.8367 8.512 37.469 9.401 36.5824L15.729 30.2847C16.534 29.482 16.534 28.1754 15.729 27.375L9.401 21.0774Z" fill="#EDA44D"/>
<path opacity="0.35" d="M20.2463 47.43C19.3596 48.319 19.9943 49.831 21.252 49.831H23.3333V54.4977C23.3333 55.7857 24.3786 56.831 25.6666 56.831H30.3333C31.6213 56.831 32.6666 55.7857 32.6666 54.4977V49.831H34.7456C36.0056 49.831 36.638 48.319 35.7513 47.43L29.4536 41.102C28.651 40.297 27.3443 40.297 26.544 41.102L20.2463 47.43Z" fill="#EDA44D"/>
<path opacity="0.35" d="M46.599 36.5848C47.488 37.4715 49 36.8368 49 35.5791V33.4978H53.6667C54.9547 33.4978 56 32.4525 56 31.1645V26.4978C56 25.2098 54.9547 24.1645 53.6667 24.1645H49V22.0855C49 20.8255 47.488 20.1931 46.599 21.0798L40.271 27.3775C39.466 28.1801 39.466 29.4868 40.271 30.2871L46.599 36.5848Z" fill="#EDA44D"/>
<path opacity="0.35" d="M35.7537 10.2321C36.6404 9.34305 36.0057 7.83105 34.748 7.83105H32.6667V3.16439C32.6667 1.87639 31.6214 0.831055 30.3334 0.831055H25.6667C24.3787 0.831055 23.3334 1.87639 23.3334 3.16439V7.83105H21.2544C19.9944 7.83105 19.362 9.34305 20.2487 10.2321L26.5464 16.5601C27.349 17.3651 28.6557 17.3651 29.456 16.5601L35.7537 10.2321Z" fill="#EDA44D"/>
</g>
<defs>
<clipPath id="clip0_226_1289">
<rect width="56" height="56" fill="white" transform="translate(0 0.831055)"/>
</clipPath>
</defs>
</svg>
