<svg width="56" height="56" viewBox="0 0 56 56" fill="none" xmlns="http://www.w3.org/2000/svg">
<path opacity="0.35" d="M39.6666 51.3333H16.3333C12.4669 51.3333 9.33325 48.1997 9.33325 44.3333V14C9.33325 10.1337 12.4669 7 16.3333 7H39.6666C43.5329 7 46.6666 10.1337 46.6666 14V44.3333C46.6666 48.1997 43.5329 51.3333 39.6666 51.3333Z" fill="#EDA44D"/>
<path d="M32.6667 2.33337H23.3334C20.7551 2.33337 18.6667 4.42171 18.6667 7.00004C18.6667 9.57837 20.7551 11.6667 23.3334 11.6667H32.6667C35.2451 11.6667 37.3334 9.57837 37.3334 7.00004C37.3334 4.42171 35.2451 2.33337 32.6667 2.33337Z" fill="#EDA44D"/>
<path d="M18.6666 23.3333C19.9552 23.3333 20.9999 22.2886 20.9999 21C20.9999 19.7113 19.9552 18.6666 18.6666 18.6666C17.3779 18.6666 16.3333 19.7113 16.3333 21C16.3333 22.2886 17.3779 23.3333 18.6666 23.3333Z" fill="#EDA44D"/>
<path d="M37.3334 23.3333H28.0001C26.7121 23.3333 25.6667 22.288 25.6667 21C25.6667 19.712 26.7121 18.6666 28.0001 18.6666H37.3334C38.6214 18.6666 39.6667 19.712 39.6667 21C39.6667 22.288 38.6214 23.3333 37.3334 23.3333Z" fill="#EDA44D"/>
<path d="M18.6666 42C19.9552 42 20.9999 40.9554 20.9999 39.6667C20.9999 38.378 19.9552 37.3334 18.6666 37.3334C17.3779 37.3334 16.3333 38.378 16.3333 39.6667C16.3333 40.9554 17.3779 42 18.6666 42Z" fill="#EDA44D"/>
<path d="M37.3334 42H28.0001C26.7121 42 25.6667 40.9547 25.6667 39.6667C25.6667 38.3787 26.7121 37.3334 28.0001 37.3334H37.3334C38.6214 37.3334 39.6667 38.3787 39.6667 39.6667C39.6667 40.9547 38.6214 42 37.3334 42Z" fill="#EDA44D"/>
<path d="M18.6666 32.6667C19.9552 32.6667 20.9999 31.622 20.9999 30.3333C20.9999 29.0447 19.9552 28 18.6666 28C17.3779 28 16.3333 29.0447 16.3333 30.3333C16.3333 31.622 17.3779 32.6667 18.6666 32.6667Z" fill="#EDA44D"/>
<path d="M37.3334 32.6667H28.0001C26.7121 32.6667 25.6667 31.6213 25.6667 30.3333C25.6667 29.0453 26.7121 28 28.0001 28H37.3334C38.6214 28 39.6667 29.0453 39.6667 30.3333C39.6667 31.6213 38.6214 32.6667 37.3334 32.6667Z" fill="#EDA44D"/>
</svg>
