<svg width="57" height="57" viewBox="0 0 57 57" fill="none" xmlns="http://www.w3.org/2000/svg">
<path d="M12.3333 17.1643C11.7359 17.1643 11.1386 16.9357 10.6836 16.4807L8.35027 14.1473C7.43793 13.235 7.43793 11.7603 8.35027 10.848C9.2626 9.93565 10.7373 9.93565 11.6496 10.848L12.3333 11.5317L17.6836 6.18132C18.5959 5.26899 20.0706 5.26899 20.9829 6.18132C21.8953 7.09365 21.8953 8.56832 20.9829 9.48065L13.9829 16.4807C13.5279 16.9357 12.9306 17.1643 12.3333 17.1643Z" fill="#EDA44D"/>
<path d="M12.3333 33.4978C11.7359 33.4978 11.1386 33.2691 10.6836 32.8141L8.35027 30.4808C7.43793 29.5685 7.43793 28.0938 8.35027 27.1815C9.2626 26.2691 10.7373 26.2691 11.6496 27.1815L12.3333 27.8652L17.6836 22.5148C18.5959 21.6025 20.0706 21.6025 20.9829 22.5148C21.8953 23.4271 21.8953 24.9018 20.9829 25.8141L13.9829 32.8141C13.5279 33.2691 12.9306 33.4978 12.3333 33.4978Z" fill="#EDA44D"/>
<path d="M12.3333 49.8311C11.7359 49.8311 11.1386 49.6024 10.6836 49.1474L8.35027 46.8141C7.43793 45.9017 7.43793 44.4271 8.35027 43.5147C9.2626 42.6024 10.7373 42.6024 11.6496 43.5147L12.3333 44.1984L17.6836 38.8481C18.5959 37.9357 20.0706 37.9357 20.9829 38.8481C21.8953 39.7604 21.8953 41.2351 20.9829 42.1474L13.9829 49.1474C13.5279 49.6024 12.9306 49.8311 12.3333 49.8311Z" fill="#EDA44D"/>
<path opacity="0.35" d="M46.1666 10.1643C45.266 10.1643 30.734 10.1643 29.8333 10.1643C27.9013 10.1643 26.3333 11.7323 26.3333 13.6643C26.3333 15.5963 27.9013 17.1643 29.8333 17.1643C30.734 17.1643 45.266 17.1643 46.1666 17.1643C48.0986 17.1643 49.6666 15.5963 49.6666 13.6643C49.6666 11.7323 48.0986 10.1643 46.1666 10.1643Z" fill="#EDA44D"/>
<path opacity="0.35" d="M46.1666 26.4978C45.266 26.4978 30.734 26.4978 29.8333 26.4978C27.9013 26.4978 26.3333 28.0658 26.3333 29.9978C26.3333 31.9298 27.9013 33.4978 29.8333 33.4978C30.734 33.4978 45.266 33.4978 46.1666 33.4978C48.0986 33.4978 49.6666 31.9298 49.6666 29.9978C49.6666 28.0658 48.0986 26.4978 46.1666 26.4978Z" fill="#EDA44D"/>
<path opacity="0.35" d="M46.1666 42.8311C45.266 42.8311 30.734 42.8311 29.8333 42.8311C27.9013 42.8311 26.3333 44.3991 26.3333 46.3311C26.3333 48.2631 27.9013 49.8311 29.8333 49.8311C30.734 49.8311 45.266 49.8311 46.1666 49.8311C48.0986 49.8311 49.6666 48.2631 49.6666 46.3311C49.6666 44.3991 48.0986 42.8311 46.1666 42.8311Z" fill="#EDA44D"/>
</svg>
