<svg width="56" height="56" viewBox="0 0 56 56" fill="none" xmlns="http://www.w3.org/2000/svg">
<path d="M41.1297 35.0886L36.0687 27.9999L41.1321 20.9113C37.7347 20.5916 34.8717 18.4869 33.5184 15.5143L27.9324 23.3333H19.7051C20.5077 24.7099 21.0001 26.2919 21.0001 27.9999C21.0001 29.7079 20.5077 31.2899 19.7051 32.6666H27.9324L33.5161 40.4856C34.8694 37.5106 37.7324 35.4059 41.1297 35.0886Z" fill="#EDA44D"/>
<path opacity="0.35" d="M11.6666 18.6666C6.51225 18.6666 2.33325 22.8456 2.33325 28C2.33325 33.1543 6.51225 37.3333 11.6666 37.3333C16.8209 37.3333 20.9999 33.1543 20.9999 28C20.9999 22.8456 16.8209 18.6666 11.6666 18.6666Z" fill="#EDA44D"/>
<path opacity="0.35" d="M51.3334 44.3333C51.3334 39.179 47.1544 35 42.0001 35C36.8457 35 32.6667 39.179 32.6667 44.3333C32.6667 49.4877 36.8457 53.6667 42.0001 53.6667C47.1544 53.6667 51.3334 49.4877 51.3334 44.3333Z" fill="#EDA44D"/>
<path opacity="0.35" d="M51.3334 11.6667C51.3334 6.51237 47.1544 2.33337 42.0001 2.33337C36.8457 2.33337 32.6667 6.51237 32.6667 11.6667C32.6667 16.821 36.8457 21 42.0001 21C47.1544 21 51.3334 16.821 51.3334 11.6667Z" fill="#EDA44D"/>
</svg>
