<svg width="57" height="56" viewBox="0 0 57 56" fill="none" xmlns="http://www.w3.org/2000/svg">
<path opacity="0.35" d="M46.1901 9.93296L44.8648 11.2583C40.6671 7.19596 34.9714 4.66663 28.6668 4.66663C18.8411 4.66663 10.4364 10.7403 6.99709 19.3386C5.78376 22.372 8.11009 25.6666 11.3768 25.6666C13.2201 25.6666 14.9701 24.6143 15.6421 22.8993C17.6791 17.6913 22.7354 14 28.6668 14C32.3954 14 35.7671 15.4746 38.2731 17.8523L36.2664 19.8566C34.9831 21.14 35.8931 23.3333 37.7061 23.3333H46.3558C48.1851 23.3333 49.6668 21.8516 49.6668 20.0246V11.3726C49.6668 9.55963 47.4734 8.65196 46.1901 9.93296Z" fill="#EDA44D"/>
<path d="M10.9754 32.6666H19.6251C21.4381 32.6666 22.3481 34.86 21.0647 36.1433L11.1434 46.067C9.86008 47.348 7.66675 46.4403 7.66675 44.6273V35.9776C7.66675 34.1483 9.14842 32.6666 10.9754 32.6666Z" fill="#EDA44D"/>
<path d="M45.9567 30.3334C44.1133 30.3334 42.3633 31.3857 41.6913 33.1007C39.6543 38.3087 34.598 42 28.6667 42C23.5147 42 19.0183 39.214 16.594 35.0654C15.754 33.6304 7.319 38.2014 9.559 41.3934C13.78 47.404 20.7637 51.3334 28.6667 51.3334C38.4923 51.3334 46.897 45.2597 50.3363 36.6614C51.5497 33.628 49.2233 30.3334 45.9567 30.3334Z" fill="#EDA44D"/>
</svg>
