<svg width="57" height="56" viewBox="0 0 57 56" fill="none" xmlns="http://www.w3.org/2000/svg">
<path d="M15.5 16.3333C18.7216 16.3333 21.3333 13.7216 21.3333 10.5C21.3333 7.2783 18.7216 4.66663 15.5 4.66663C12.2783 4.66663 9.66663 7.2783 9.66663 10.5C9.66663 13.7216 12.2783 16.3333 15.5 16.3333Z" fill="#EDA44D"/>
<path d="M21.3332 18.6666C20.6682 18.6666 10.3315 18.6666 9.66654 18.6666C7.08821 18.6666 4.99988 20.755 4.99988 23.3333C4.99988 25.9116 7.08821 28 9.66654 28C10.3315 28 20.6682 28 21.3332 28C23.9115 28 25.9999 25.9116 25.9999 23.3333C25.9999 20.755 23.9115 18.6666 21.3332 18.6666Z" fill="#EDA44D"/>
<path d="M43.5 37.3333C46.7216 37.3333 49.3333 34.7216 49.3333 31.5C49.3333 28.2783 46.7216 25.6666 43.5 25.6666C40.2783 25.6666 37.6666 28.2783 37.6666 31.5C37.6666 34.7216 40.2783 37.3333 43.5 37.3333Z" fill="#EDA44D"/>
<path d="M49.3332 39.6666C48.6682 39.6666 38.3315 39.6666 37.6665 39.6666C35.0882 39.6666 32.9999 41.755 32.9999 44.3333C32.9999 46.9116 35.0882 49 37.6665 49C38.3315 49 48.6682 49 49.3332 49C51.9115 49 53.9999 46.9116 53.9999 44.3333C53.9999 41.755 51.9115 39.6666 49.3332 39.6666Z" fill="#EDA44D"/>
<path opacity="0.35" d="M24.8705 48.951C24.7679 48.951 24.6652 48.9464 24.5602 48.937C17.8495 48.349 12.1095 43.596 10.2779 37.1117C9.75288 35.252 10.8332 33.3177 12.6952 32.7927C14.5525 32.263 16.4892 33.348 17.0142 35.21C18.0619 38.9154 21.3379 41.629 25.1715 41.965C27.0965 42.133 28.5222 43.8317 28.3519 45.7567C28.1932 47.5791 26.6649 48.951 24.8705 48.951Z" fill="#EDA44D"/>
<path opacity="0.35" d="M40.784 21.014C39.251 21.014 37.844 19.999 37.4146 18.4496C36.3786 14.7233 33.098 11.9933 29.248 11.655C27.323 11.487 25.8973 9.7883 26.0676 7.8633C26.238 5.9383 27.9436 4.52663 29.8593 4.68297C36.6003 5.27097 42.3473 10.052 44.1603 16.576C44.6783 18.438 43.5863 20.3676 41.7243 20.8856C41.4093 20.972 41.0943 21.014 40.784 21.014Z" fill="#EDA44D"/>
</svg>
