<svg width="57" height="57" viewBox="0 0 57 57" fill="none" xmlns="http://www.w3.org/2000/svg">
<g clip-path="url(#clip0_226_1324)">
<path d="M12 14.8311C14.5773 14.8311 16.6666 12.7418 16.6666 10.1645C16.6666 7.58714 14.5773 5.4978 12 5.4978C9.42265 5.4978 7.33331 7.58714 7.33331 10.1645C7.33331 12.7418 9.42265 14.8311 12 14.8311Z" fill="#EDA44D"/>
<path opacity="0.35" d="M45.8333 7.83105C44.9326 7.83105 25.734 7.83105 24.8333 7.83105C22.9013 7.83105 21.3333 9.39905 21.3333 11.3311C21.3333 13.2631 22.9013 14.8311 24.8333 14.8311C25.734 14.8311 44.9326 14.8311 45.8333 14.8311C47.7653 14.8311 49.3333 13.2631 49.3333 11.3311C49.3333 9.39905 47.7653 7.83105 45.8333 7.83105Z" fill="#EDA44D"/>
<path opacity="0.35" d="M45.8333 24.1643C44.9326 24.1643 25.734 24.1643 24.8333 24.1643C22.9013 24.1643 21.3333 25.7323 21.3333 27.6643C21.3333 29.5963 22.9013 31.1643 24.8333 31.1643C25.734 31.1643 44.9326 31.1643 45.8333 31.1643C47.7653 31.1643 49.3333 29.5963 49.3333 27.6643C49.3333 25.7323 47.7653 24.1643 45.8333 24.1643Z" fill="#EDA44D"/>
<path d="M12 31.1644C14.5773 31.1644 16.6666 29.075 16.6666 26.4977C16.6666 23.9204 14.5773 21.8311 12 21.8311C9.42265 21.8311 7.33331 23.9204 7.33331 26.4977C7.33331 29.075 9.42265 31.1644 12 31.1644Z" fill="#EDA44D"/>
<path d="M12 47.4976C14.5773 47.4976 16.6666 45.4083 16.6666 42.831C16.6666 40.2536 14.5773 38.1643 12 38.1643C9.42265 38.1643 7.33331 40.2536 7.33331 42.831C7.33331 45.4083 9.42265 47.4976 12 47.4976Z" fill="#EDA44D"/>
<path opacity="0.35" d="M47.903 41.1885C47.1913 38.7735 44.9816 36.9978 42.3333 36.9978C39.9416 36.9978 37.893 38.4398 36.9923 40.4978C31.474 40.4978 25.3326 40.4978 24.8333 40.4978C22.9013 40.4978 21.3333 42.0658 21.3333 43.9978C21.3333 45.9298 22.9013 47.4978 24.8333 47.4978C25.391 47.4978 32.965 47.4978 38.866 47.4978C39.8366 48.2211 41.029 48.6645 42.3333 48.6645C43.6376 48.6645 44.83 48.2211 45.8006 47.4978C45.8076 47.4978 45.8286 47.4978 45.8333 47.4978C47.7653 47.4978 49.3333 45.9298 49.3333 43.9978C49.3333 42.8428 48.7663 41.8278 47.903 41.1885Z" fill="#EDA44D"/>
<path d="M55.309 50.8578L50.927 46.4758C51.403 45.3558 51.6667 44.1238 51.6667 42.8311C51.6667 37.6768 47.4877 33.4978 42.3333 33.4978C37.179 33.4978 33 37.6768 33 42.8311C33 47.9855 37.179 52.1645 42.3333 52.1645C43.626 52.1645 44.858 51.9008 45.978 51.4248L50.36 55.8068C51.0413 56.4905 51.9373 56.8311 52.8333 56.8311C53.7293 56.8311 54.6253 56.4905 55.309 55.8068C56.6763 54.4395 56.6763 52.2228 55.309 50.8578ZM37.6667 42.8311C37.6667 40.2528 39.755 38.1645 42.3333 38.1645C44.9117 38.1645 47 40.2528 47 42.8311C47 45.4095 44.9117 47.4978 42.3333 47.4978C39.755 47.4978 37.6667 45.4095 37.6667 42.8311Z" fill="#EDA44D"/>
</g>
<defs>
<clipPath id="clip0_226_1324">
<rect width="56" height="56" fill="white" transform="translate(0.333313 0.831055)"/>
</clipPath>
</defs>
</svg>
