<svg width="57" height="56" viewBox="0 0 57 56" fill="none" xmlns="http://www.w3.org/2000/svg">
<path d="M32.0013 38.5746C29.752 39.9583 26.9146 39.9583 24.663 38.5746L9.66663 29.3463V42C9.66663 45.8663 12.8003 49 16.6666 49H40C43.8663 49 47 45.8663 47 42V29.3463L32.0013 38.5746Z" fill="#EDA44D"/>
<path opacity="0.35" d="M24.6652 5.75862L5.09087 17.8033C1.8382 19.8053 1.8382 24.5303 5.09087 26.5323L24.6629 38.577C26.9122 39.9606 29.7495 39.9606 32.0012 38.577L51.5732 26.5323C54.8259 24.5303 54.8259 19.8053 51.5732 17.8033L32.0012 5.75862C29.7519 4.37262 26.9145 4.37262 24.6652 5.75862Z" fill="#EDA44D"/>
<path d="M28.3333 23.3334C30.9106 23.3334 33 21.7664 33 19.8334C33 17.9004 30.9106 16.3334 28.3333 16.3334C25.756 16.3334 23.6666 17.9004 23.6666 19.8334C23.6666 21.7664 25.756 23.3334 28.3333 23.3334Z" fill="#EDA44D"/>
<path d="M29.5699 21.812L43.7192 12.9687C42.6949 9.42669 39.2812 10.2387 39.2812 10.2387L27.0966 17.8547L29.5699 21.812Z" fill="#EDA44D"/>
</svg>
