<?xml version="1.0" encoding="UTF-8"?>
<svg id="Layer_1" data-name="Layer 1" xmlns="http://www.w3.org/2000/svg" viewBox="0 0 488 344">
  <defs>
    <style>
      .cls-1 {
        stroke-dasharray: 0 0 7.56 7.56;
      }

      .cls-1, .cls-2 {
        stroke: #2d92b1;
        stroke-width: .92px;
      }

      .cls-1, .cls-2, .cls-3, .cls-4, .cls-5, .cls-6 {
        fill: none;
        stroke-miterlimit: 10;
      }

      .cls-7 {
        fill: #eaad79;
      }

      .cls-8 {
        fill: #f5f5f5;
      }

      .cls-9 {
        fill: #f5f3ef;
      }

      .cls-10 {
        fill: #e4a657;
      }

      .cls-11 {
        fill: #fff;
      }

      .cls-12 {
        fill: #976729;
      }

      .cls-13 {
        fill: #999;
      }

      .cls-14 {
        fill: #912936;
      }

      .cls-15 {
        fill: #c9c9c9;
      }

      .cls-16 {
        fill: #e0e0e0;
      }

      .cls-17 {
        fill: #454549;
      }

      .cls-18 {
        fill: #453024;
      }

      .cls-19 {
        fill: #6f4439;
      }

      .cls-20 {
        fill: #455a64;
      }

      .cls-21 {
        fill: #263238;
      }

      .cls-22 {
        fill: #2d92b1;
      }

      .cls-23 {
        fill: #515254;
      }

      .cls-3, .cls-6 {
        stroke: #912936;
      }

      .cls-4, .cls-5 {
        stroke: #e4a657;
      }

      .cls-24 {
        opacity: .6;
      }

      .cls-25 {
        isolation: isolate;
      }

      .cls-5, .cls-6 {
        stroke-dasharray: 0 0 8.95 8.95;
      }
    </style>
  </defs>
  <path class="cls-8" d="M455,153.5c-.1,1.7-.2,3.3-.3,4.9,0,.3-.1,.7-.1,1-.3,3-.6,5.9-.9,8.8-.1,.8-.2,1.6-.4,2.4,0,.2-.1,.3-.1,.4-.1,.4-.1,.8-.2,1.2-.4,2.7-.9,5.4-1.5,8-.2,.9-.4,1.9-.6,2.8-.1,.2-.1,.3-.1,.5-.1,.6-.3,1.1-.4,1.7-1.2,5.1-2.7,10.2-4.3,15.2-.5,1.6-1.1,3.1-1.6,4.7-.2,.4-.3,.9-.5,1.3-.7,1.8-1.4,3.5-2,5.2-.7,1.7-1.4,3.3-2.1,4.9-1.1,2.6-2.3,5.1-3.5,7.6-.3,.5-.5,1-.8,1.6-.8,1.7-1.7,3.3-2.6,5-8.7,16.1-19.8,31.2-32.5,44.6-6.3,6.6-12.9,12.7-19.9,18.4-1.9,1.5-3.8,3-5.6,4.4-6.3,4.8-12.9,9.2-19.7,13.2-3.4,2-6.8,3.9-10.3,5.7-.1,.1-.2,.1-.4,.2-14.5,7.4-29.6,13.2-45.2,17.4-50.3,13.5-104.8,10.7-154.5-5-30.1-9.5-59.2-24.1-83.4-44.1-6-5-11.8-10.4-17.2-16-1-1.1-2.1-2.2-3.1-3.3-3.2-3.6-6.3-7.3-9.3-11.2-1.7-2.2-3.3-4.5-4.9-6.8C-.6,207.9-9.2,152.8,12.4,108.5c8.1-16.7,21.1-32.1,38.5-38.3,27.9-9.9,57.4,5.6,82.7,20.6,25.2,15,54.7,30.6,82.7,20.8,21.4-7.5,35.3-28,52.6-42.8,29.3-25.1,71.6-34.1,108.3-22.9,5.1,1.6,10.1,3.5,14.8,5.8,11.2,5.3,21.2,12.4,29.8,21,6.5,6.5,12.1,13.7,16.9,21.6,9.7,16.2,15.4,35,16.2,54.6l.1,4.6Z"/>
  <path class="cls-8" d="M226.6,53c-2.2,0-4.4,.3-6.5,.8-1-3.9-4.9-6.9-9.8-7.5-2.1-9.9-13.1-17.5-26.2-17.5-14.7,0-26.7,9.5-26.7,21.1,0,1.6,.2,3.2,.7,4.7-9.7,.8-17.3,7-17.3,14.6,0,8.1,8.7,14.6,19.4,14.6,4.3,.1,8.6-1.1,12.3-3.4,5.3,3.7,13,6.1,21.5,6.1,11.1,0,20.8-4,25.6-9.8,2.3,.6,4.7,1,7.1,1,10.1,0,18.3-5.5,18.3-12.3-.1-6.9-8.3-12.4-18.4-12.4Z"/>
  <path class="cls-16" d="M447.4,82.1c-1.3,0-2.6,.1-3.9,.3-.6-1.6-3-2.8-5.9-3-1.3-4-7.9-7-15.7-7-8.9,0-16,3.8-16,8.5,0,.6,.1,1.3,.4,1.9-5.8,.3-10.4,2.8-10.4,5.9,0,3.3,5.2,5.9,11.6,5.9,2.6,.1,5.1-.4,7.4-1.4,3.2,1.5,7.8,2.4,12.9,2.4,6.7,0,12.4-1.6,15.4-4,1.4,.3,2.8,.4,4.3,.4,6.1,0,11-2.2,11-5s-5.1-4.9-11.1-4.9Z"/>
  <path class="cls-17" d="M9.6,273.6l1.8,3.3c-.6,0-1.1-.4-1.4-.8-.5-.7-.9-1.5-1.3-2.1-4.3-7-6.1-10.5-6.8-11.8-.3-.5-.3-1.1-.2-1.7,.2-.1,.4-.1,.5-.2l7.4,13.3Z"/>
  <path class="cls-17" d="M484.1,176.1c.1,.3,.1,.5,.1,.7,0,.3-.1,.5-.1,.7-.1,.3-.2,.5-.3,.7-.3,.4-.6,.8-.9,1.1-.4,.4-.8,.7-1.4,1-.5,.3-1.1,.6-1.7,.9-.6,.3-1.3,.5-1.9,.7l-.3-.7,.2,.7-.3,.1c-.3,.1-.6,.2-.9,.3s-.6,.2-.9,.3l-1,.3c-.3,.1-.6,.2-1,.2l-1.1,.2-1.1,.2-1.1,.2c-.4,.1-.7,.1-1.1,.2-.7,.1-1.5,.2-2.1,.3s-1.5,.2-2.1,.3c-.7,.1-1.4,.2-2.1,.2l-2.1,.2-2.1,.1-2.1,.1c-.7,.1-1.4,.1-2.1,.1l-2,.1c-.7,.1-1.4,.1-2.1,.1h-5.9c-1.3,0-2.6-.1-3.9-.1s-2.6-.1-3.9-.1c-1.3-.1-2.6-.1-3.8-.1s-2.5-.1-3.8-.2c-1.3-.1-2.4-.1-3.7-.2-1.2-.1-2.4-.2-3.6-.2-1.2-.1-2.4-.2-3.6-.2l-3.5-.2-3.4-.3-3.4-.2-22.9-1.6-3.1-.2-34.2-2.4-1.4-.1c-.9-.1-1.8-.1-2.8-.2l-2.8-.2c-.9-.1-1.8-.1-2.8-.1l-2.8-.1c-1.8-.1-3.6-.1-5.5-.2-3.9-.1-7.4-.1-10.8,0-1.8,.1-3.6,.1-5.3,.2-.8,.1-1.7,.1-2.6,.2-.9,.1-1.7,.1-2.6,.2-.9,.1-1.7,.2-2.6,.3-.8,.1-1.7,.2-2.5,.3-.7,.1-1.5,.2-2.2,.4-.7,.1-1.4,.3-2.1,.4s-1.4,.3-2,.5-1.3,.4-1.9,.5l-.9,.3c-.3,.1-.6,.2-.9,.3s-.6,.2-.8,.3c-.3,.1-.5,.2-.7,.3l-.2,.1,.2,.1c.2,.1,.3,.2,.5,.3l.6,.3,.7,.3c.3,.1,.5,.2,.8,.3l.9,.3c.6,.2,1.3,.3,1.9,.5,.7,.2,1.4,.3,2.1,.4,.7,.2,1.5,.3,2.2,.4,.7,.1,1.5,.3,2.3,.4s1.6,.2,2.4,.3,1.6,.2,2.4,.3l2.5,.3c.8,.1,1.7,.2,2.6,.3l5.3,.5,41,3.5,50.5,4.4,3.7,.4,3.8,.4c1.3,.2,2.5,.3,3.8,.4,1.3,.2,2.6,.3,3.9,.5s2.6,.3,3.9,.5,2.6,.4,3.9,.6c1.3,.2,2.7,.4,4,.7,1.4,.3,2.7,.5,4.1,.8s2.8,.6,4.1,.9l.4,.1,1.7,.4c.7,.2,1.4,.3,2.1,.5s1.4,.4,2.1,.6c.7,.2,1.4,.4,2.1,.7s1.4,.5,2.1,.7c.7,.3,1.5,.5,2.1,.8,.7,.3,1.4,.6,2.1,1s1.4,.7,2,1.1c.4,.2,.7,.4,1,.6,.3,.2,.6,.5,.9,.7s.6,.5,.9,.7c.3,.3,.5,.5,.8,.8s.5,.6,.7,.8c.2,.3,.4,.6,.6,.9,.2,.3,.3,.6,.4,.9,.1,.3,.2,.6,.3,1,.1,.3,.1,.6,.1,1,0,.3,0,.6-.1,1-.1,.3-.1,.6-.2,.9-.1,.3-.2,.6-.3,.9-.1,.3-.3,.6-.4,.8-.2,.3-.4,.6-.5,.8-.2,.3-.4,.5-.6,.8s-.4,.5-.6,.7l-1.5,1.5c-.6,.5-1.2,.9-1.8,1.4-.6,.4-1.4,.8-2,1.3-.7,.4-1.5,.8-2.2,1.1l-1,.5-1.1,.4-1.1,.4-1.1,.4c-.5,.2-.9,.3-1.5,.5-.5,.2-1,.3-1.5,.4-.5,.1-1,.3-1.5,.4-.5,.1-.9,.3-1.5,.4-.9,.2-1.8,.4-2.7,.6-.9,.2-1.8,.4-2.7,.5-.9,.2-1.8,.3-2.7,.4-.9,.1-1.8,.3-2.7,.4-.8,.1-1.7,.2-2.6,.3-.5,.1-1,.1-1.5,.2l-1.1,.1c-.9,.1-1.7,.2-2.6,.2-.8,.1-1.7,.1-2.6,.2l-1.3,.1-1.3,.1-4.9,.2h-9.6l-2.3-.1c-1.6-.1-3.1-.1-4.6-.1-1.5-.1-3-.1-4.5-.2-1.5-.1-3-.2-4.4-.3-1.5-.1-2.9-.2-4.3-.3-1.5-.1-2.9-.2-4.3-.3s-2.8-.3-4.2-.4c-1.4-.1-2.8-.3-4.1-.4l-4-.4c-.7-.1-1.3-.2-2-.2l-2-.2-7.7-.9-31.5-4.1c-4.4-.6-8.8-1.1-13.1-1.7-4.3-.5-8.5-1-12.7-1.6l-11.6-1.4-.6-.1-11.7-1.5-32.6-4c-.8-.1-1.7-.2-2.5-.3s-1.7-.2-2.5-.3l-2.5-.2c-10.9-1-21.8-1-32.7-.2-20.7,1.6-30.6,6.6-25.8,9.1,19.5,10.1,106.6,18.6,111.9,19.4,17.9,2.7,36.4,4.6,54.3,8.6,18,4,38.3,8.4,51.1,23.5,.6,.7,1.1,1.5,1.7,2.2,6.8,10.7,1.1,25.1-8.6,34.3-23.4,22.2-60.3,24.9-86,25.1h-1.3c-1.7,0-3.4,0-5.1-.1-27-.6-55.9-5.4-88.2-14.8l-53.1-15.6c-5.1-1.5-9.6-2.9-13.9-4.2-14.7-4.4-25.4-7.7-44.8-11.5-13.1-2.6-25.8-3.6-38-3.1-6-5-11.8-10.4-17.2-16-1-1.1-2.1-2.2-3.1-3.3-3.2-3.6-6.3-7.3-9.3-11.2,17.2-1.6,41.1-1.5,70.5,3,25.3,3.9,50.4,10.3,74.6,16.6l9.6,2.4c8.4,2.1,16.9,4.5,25.2,6.8,26.9,7.5,54.7,15.3,82.5,16.6,12.9,.6,26.3,1.2,39.3-1.2,5.4-1,21.3-5.3,24.1-11.6,.7-1.5,.5-3-.5-4.6-1.4-2.3-4.2-3.5-6.8-4.6-20.1-8.2-40.4-12.4-61.9-16.8,0,0-95.7-13.9-125.2-27.6-22.9-10.7,.3-24.8,5.1-26.5,38.7-13.7,77.6-6.7,115.3-2.1,2.2,.3,4.5,.5,6.8,.8l10.2,1.2,1.2,.2,11.8,1.4c4.1,.5,8.1,1,12.2,1.5,4.2,.5,8.4,1,12.7,1.6l35.7,4.5,3.5,.4,1.8,.2,3.6,.4c1.3,.1,2.4,.3,3.6,.4,1.2,.1,2.4,.2,3.6,.3,1.3,.1,2.4,.2,3.7,.3,1.3,.1,2.5,.2,3.7,.3,1.3,.1,2.5,.2,3.8,.2s2.5,.1,3.8,.2c1.3,.1,2.5,.1,3.8,.1s2.5,.1,3.8,.1h3.8c1.3,0,2.5-.1,3.7-.1,1.3-.1,2.4-.1,3.6-.2,1.2-.1,2.4-.2,3.5-.3s2.3-.2,3.4-.4,2.1-.3,3.1-.5,2-.4,2.9-.5c.3-.1,.6-.2,.8-.2,.3-.1,.6-.2,.8-.2,.3-.1,.5-.2,.8-.2,.1-.1,.2-.1,.3-.1,.2-.1,.3-.1,.4-.1l1.3-.5c.3-.1,.5-.3,.8-.4,.3-.1,.5-.3,.7-.4,.2-.1,.4-.3,.6-.4,.2-.2,.4-.3,.5-.4,.2-.1,.3-.3,.4-.4,.1-.1,.2-.2,.2-.3q.1-.1,.1-.2v-.1c0-.1-.1-.1-.1-.1-.1-.1-.1-.2-.2-.2-.1-.1-.3-.2-.4-.3-.2-.1-.4-.3-.6-.4-.2-.2-.5-.3-.8-.4-.3-.2-.6-.3-.9-.4-.4-.2-.7-.3-1.1-.4-.4-.2-.8-.3-1.3-.4-.4-.2-.9-.3-1.4-.4-.5-.1-.9-.3-1.4-.4-.5-.2-.9-.3-1.5-.4-1-.3-2.1-.5-3.1-.8s-2.1-.5-3.2-.7-2.2-.4-3.4-.6c-1.1-.2-2.3-.4-3.4-.6-1.1-.2-2.3-.4-3.4-.6-1.1-.2-2.3-.4-3.5-.5-1.1-.2-2.3-.3-3.5-.5-1.1-.2-2.3-.3-3.5-.5l-1.8-.2-8.8-1-88.9-9.7-1.4-.2-2.7-.4-2.7-.4-2.6-.4c-.9-.2-1.7-.3-2.6-.4l-2.5-.5c-.8-.2-1.7-.4-2.4-.5-.8-.2-1.6-.4-2.4-.6-.8-.2-1.6-.4-2.3-.6-.4-.1-.8-.2-1.1-.4-.4-.1-.7-.3-1.1-.4-.4-.1-.7-.3-1.1-.4-.4-.2-.7-.3-1-.5-.2-.1-.4-.2-.5-.3-.2-.1-.3-.2-.5-.3s-.3-.2-.5-.3-.3-.2-.4-.4-.3-.3-.4-.4c-.2-.2-.3-.3-.4-.5s-.2-.4-.3-.5c-.1-.2-.2-.4-.2-.6-.1-.3-.1-.5-.1-.7,0-.3,.1-.5,.2-.7,.1-.3,.2-.5,.4-.7,.2-.3,.3-.5,.5-.7s.4-.5,.6-.6c.3-.2,.5-.4,.7-.6,.3-.2,.5-.4,.8-.6,.3-.2,.6-.4,.8-.5,.3-.2,.6-.3,.8-.5,.3-.2,.6-.3,.8-.4,.3-.2,.6-.3,.8-.4l.8-.4,.8-.3,.8-.3c.3-.1,.5-.2,.8-.3l.8-.3,.9-.3c1-.3,2.1-.6,3.1-.8,1-.3,2.1-.5,3.1-.7s2.1-.4,3.1-.6c1-.2,1.9-.3,3-.5s2.1-.3,3.2-.4c1-.1,2.1-.2,3.1-.3s2-.2,3-.2c1-.1,2-.1,3-.2,1.9-.1,3.9-.2,5.9-.2,1.9-.1,3.8-.1,5.8-.1,1.8,0,3.7,.1,5.7,.1,1.9,.1,3.8,.1,5.7,.2l2.8,.1c.9,.1,1.9,.1,2.8,.2l2.8,.2c.9,.1,1.9,.1,2.8,.2l1.4,.1,9.9,.8,23.7,1.8,6.2,.4,6.4,.5,19.7,1.5,3.4,.3,3.4,.2,3.4,.2,3.4,.2,3.5,.2c1.1,.1,2.3,.1,3.5,.2s2.3,.1,3.5,.1c1.2,.1,2.4,.1,3.6,.1h7.2l1.8-.1,1.8-.1,1.8-.1,1.8-.1,1.8-.1c.6-.1,1.1-.1,1.7-.2s1.1-.1,1.7-.2c.6-.1,1.1-.1,1.6-.2,.3-.1,.5-.1,.8-.1l.8-.1,.7-.1,.7-.2,.7-.2c.2-.1,.4-.1,.6-.2l.6-.2,.6-.2,.3,.7-.2-.7c.4-.1,.7-.2,.9-.4,.3-.1,.5-.2,.7-.4,.2-.1,.4-.2,.5-.4,.1-.1,.2-.2,.3-.3l.1-.1-.1-.1-.1-.1q-.1-.1-.2-.2c-.1-.1-.2-.1-.3-.2-.3-.2-.5-.3-.8-.4-.3-.1-.6-.3-1-.4-.4-.1-.8-.3-1.2-.4-.4-.1-.9-.2-1.4-.4-.9-.2-1.9-.4-2.9-.6-1-.2-2.1-.4-3.1-.6-1-.2-2.1-.3-3.2-.5s-2.2-.3-3.3-.4c-1.1-.1-2.2-.3-3.3-.4-.3-.1-.6-.1-.9-.1-.8-.1-1.7-.2-2.4-.3l-3.4-.3-3.3-.3-3.3-.3-3.3-.3-3.3-.2-3.3-.2-25.6-1.7-12.1-.8c-2-.2-4-.3-5.9-.4-1.9-.2-3.9-.3-5.8-.4-1.9-.2-3.8-.3-5.6-.5-1.9-.2-3.7-.4-5.4-.6l-1.3-.2-1.3-.2-1.3-.2c-.4-.1-.8-.1-1.3-.2l-1.3-.2c-.4-.1-.8-.2-1.2-.3-.4-.1-.8-.2-1.2-.3-.4-.1-.8-.2-1.1-.3l-.6-.2-.5-.2c-.2-.1-.3-.1-.5-.2-.2-.1-.4-.2-.5-.2-.2-.1-.3-.2-.5-.3s-.3-.2-.5-.3-.3-.2-.4-.4c-.2-.2-.3-.3-.3-.5-.1-.1-.1-.2-.1-.3-.1-.2-.1-.5-.1-.7,0-.1,.1-.2,.1-.3,.1-.1,.1-.2,.2-.3s.1-.2,.2-.3,.2-.2,.2-.3c.1-.1,.2-.2,.3-.2,.2-.2,.4-.3,.6-.4l.6-.3c.2-.1,.4-.2,.7-.3,.3-.1,.4-.2,.7-.3,.2-.1,.3-.1,.4-.2l.4-.2,.8-.3c.4-.1,.7-.2,1-.3l1-.3c.3-.1,.7-.2,1-.2l1-.2c.5-.1,1-.2,1.5-.3l1.5-.2,1.5-.2c.5-.1,1-.1,1.5-.2,1-.1,2-.2,3-.3s2-.2,3-.2c1-.1,2-.1,3-.1l2.9-.1c1-.1,2-.1,2.9-.1h5.8c1,0,1.9,.1,2.9,.1l2.9,.1,2.9,.1c1,.1,2,.1,2.9,.1l2.9,.1,3,.2,3,.2,18.2,1,23.9,1.2,33.3,1.7-33.4-.7-24.1-.5-18.3-.8-3-.1-3-.1-2.9-.1-2.9-.1-2.9-.1c-1-.1-1.9-.1-2.9-.1h-5.8l-2.6,.2-2.9,.1c-.9,.1-1.9,.1-2.9,.1-.9,.1-1.9,.1-2.9,.2-.9,.1-1.9,.1-2.8,.2-.9,.1-1.9,.2-2.8,.3l-1.4,.2c-.5,.1-.9,.1-1.4,.2l-1.4,.2c-.5,.1-.9,.2-1.3,.3-.3,.1-.6,.1-.8,.2l-.8,.2-.8,.2c-.3,.1-.5,.2-.7,.2l-.4,.1-.4,.1-.4,.1-.4,.2-.5,.2c-.2,.1-.3,.1-.4,.2-.1,.1-.2,.1-.3,.2l-.1,.1,.3,.1c.1,.1,.2,.1,.3,.2,.1,.1,.3,.1,.4,.2l.4,.1,.4,.1,.5,.1c.3,.1,.7,.2,1,.2l1.1,.2,1.1,.2,1.1,.2,1.2,.2,1.3,.2,1.3,.2,1.3,.2,2.6,.3c.9,.1,1.8,.2,2.7,.2l2.8,.2,2.8,.2c.9,.1,1.9,.1,2.9,.2l2.9,.2,30.6,1.6,13.1,.7,3.3,.2,3.4,.2,3.4,.2c1.1,.1,2.3,.2,3.4,.2l3.5,.3,3.5,.3c.3,0,.6,.1,.9,.1,.9,.1,1.7,.2,2.6,.3,1.2,.1,2.3,.2,3.5,.4,1.2,.1,2.4,.3,3.6,.4,1.2,.2,2.3,.3,3.6,.5,1.3,.2,2.4,.4,3.6,.6,1.3,.2,2.5,.5,3.6,.7,.6,.2,1.2,.3,1.8,.4,.6,.2,1.1,.3,1.8,.5,.6,.2,1.2,.4,1.7,.6,.6,.2,1.1,.5,1.7,.7,.3,.2,.5,.3,.8,.4,.3,.2,.5,.3,.7,.5s.4,.4,.6,.6c.2,.2,.4,.4,.5,.6,1.3,.4,1.4,.6,1.5,.9Z"/>
  <path class="cls-12" d="M39.8,234.4l-.5,23.8s14,5.2,14.1,7.8l-27-.1-.1-31.6,13.5,.1Z"/>
  <path class="cls-12" d="M17.6,235.1l-4.5,26.2,.2,13.9c0,.9-.7,1.7-1.7,1.8h-.1c-.6-.1-1.1-.3-1.4-.8-1.9-3-8.5-14.2-8.4-15.1,.3-1.4,3.5-27.6,3.5-27.6l12.4,1.6Z"/>
  <path class="cls-13" d="M9.6,273.6l1.8,3.3c-.6,0-1.1-.4-1.4-.8-.5-.7-.9-1.5-1.3-2.1,.4-.1,.6-.3,.9-.4Z"/>
  <path class="cls-13" d="M480.2,178.1c-.1,.3-.2,.6-.3,.8-.7,.7-1.7,1.3-2.7,1.6-1.9,.7-3.9,1.2-5.8,1.6-1,.2-2,.4-3,.5l-1.5,.2-1.5,.2c-4,.4-8,.5-12.1,.5h-2.4c-3.2,0-6.5-.1-9.6-.2-8-.2-16.1-.7-24.1-1.1-16-1-32.1-2.2-48.1-3.4-8-.6-16-1.1-24.1-1.6-8-.5-16-.8-24.1-.6-8,.2-16,.8-23.9,2.4-1.9,.4-3.9,.9-5.8,1.6-.9,.3-1.8,.7-2.7,1.1-.4,.2-.8,.5-1.2,.8-.3,.3-.6,.6-.8,.9-.1,.3,.1,.7,.3,.8,.4,.3,.7,.5,1.1,.7,.8,.5,1.7,.9,2.7,1.3,1.8,.7,3.7,1.3,5.6,1.8,3.9,.9,7.8,1.7,11.8,2.2s8,1,12,1.4c8,.8,16,1.2,24,1.7,16,1,32.1,2.1,48.1,3.6,8,.8,16,1.6,24,2.7,8,1.1,15.9,2.3,23.8,4.2,1.5,.3,3,.7,4.5,1.1,2.4,.7,4.8,1.6,7.1,2.5,.9,.4,1.9,.9,2.8,1.5s1.8,1.3,2.4,2.2c.4,.5,.6,1,.7,1.7,.1,.6,.1,1.3-.2,1.8-.4,1-.9,1.9-1.6,2.8-1.3,1.7-3,3-4.9,4-1.8,.9-3.8,1.7-5.7,2.2-3.1,.8-6.4,1.5-9.6,1.9-.8,.1-1.6,.2-2.4,.3-8,.8-16.1,1-24.2,1-4.1,0-8.1-.2-12.1-.4-4-.3-8-.6-12-.9-16-1.5-32-3.4-47.9-5.4s-31.9-4.3-47.8-6.6l-23.9-3.5c-4-.6-7.9-1.2-11.9-1.7s-8-.9-11.9-1.2c-8-.6-16-.8-24-.6s-15.9,.9-23.9,2.3c-3.9,.7-7.8,1.6-11.6,2.7-3.8,1.1-7.6,2.5-10.8,4.5-.8,.5-1.6,1-2.3,1.7-.6,.6-1.2,1.3-1.6,2-.2,.3-.2,.7-.3,1v.3l.1,.3c.1,.2,.1,.4,.2,.6,.3,.8,.7,1.6,1.3,2.3,1.2,1.5,2.7,2.7,4.3,3.5,1.7,.9,3.5,1.7,5.3,2.4,3.7,1.3,7.6,2.4,11.5,3.3,3.9,.9,7.8,1.8,11.7,2.6,7.9,1.6,15.8,3,23.6,4.5,7.9,1.5,15.8,2.7,23.7,3.7,7.9,1,15.9,2,23.9,3,15.9,2,31.9,4.1,47.8,6.9,7.9,1.4,15.8,3,23.7,5.1,7.9,2,15.6,4.4,23,8,3.6,1.8,7.3,4,10.3,7,1.6,1.5,2.9,3.3,3.8,5.3s1.4,4.3,1.1,6.6c-.1,1-.3,2.1-.5,3.2-.2,1-.5,2-.8,3-.2,.5-.4,1-.6,1.6-.6,1.5-1.3,2.9-2.1,4.2-2.2,3.5-5.2,6.7-8.6,9.1s-7,4.4-10.9,5.9c-3.8,1.5-7.7,2.7-11.7,3.6-.8,.2-1.6,.4-2.3,.5-7.2,1.5-14.4,2.4-21.8,2.9-8.1,.5-16.1,.6-24.2,.4-4.1-.1-8.1-.3-12.1-.5s-8.1-.6-12.1-1.2c-8-1.1-15.9-2.9-23.8-4.8-7.8-1.9-15.6-4-23.3-6.2-30.9-8.9-61.5-19-92.5-26.8-15.5-3.9-31.2-7.3-47-9.5-14.5-2-29.2-3-43.7-1.8-1-1.1-2.1-2.2-3.1-3.3,15.8-1.6,31.7-.5,47.3,1.7,16,2.2,31.8,5.7,47.4,9.7,31.2,8,61.8,18.1,92.6,27.1,7.7,2.2,15.4,4.4,23.2,6.3s15.6,3.6,23.4,4.8c4,.6,7.9,1,11.9,1.2,4,.3,8,.4,12,.5,8,.2,16,.2,24-.3,8-.4,15.8-1.5,23.6-3.2,2.9-.7,5.8-1.5,8.6-2.4,4.6-1.6,9.1-3.8,13-6.6,2.6-1.8,4.8-4.1,6.7-6.7,.4-.5,.8-1.1,1.1-1.7,1-1.6,1.8-3.4,2.4-5.2,.3-.9,.6-1.8,.8-2.8,.2-.9,.4-1.8,.5-2.8,.2-1.8-.2-3.6-.9-5.2-.8-1.7-1.9-3.2-3.2-4.5-2.7-2.7-6.1-4.7-9.6-6.5-7.1-3.5-14.7-5.9-22.4-7.9-7.7-2-15.6-3.6-23.4-5.1-15.8-2.8-31.7-4.9-47.7-7-8-1-15.9-2-23.9-3.1-8-1-15.9-2.3-23.9-3.8-7.9-1.5-15.8-2.9-23.7-4.5-4-.8-7.9-1.7-11.8-2.7-4-.9-7.9-2.1-11.7-3.4-1.9-.7-3.9-1.6-5.6-2.6-1.9-1-3.6-2.4-4.9-4.1-.7-.9-1.2-1.9-1.6-3-.1-.3-.2-.5-.3-.8l-.1-.5v-.5c0-.6,.2-1.3,.4-1.9,.5-1,1.2-2,2.1-2.7,.8-.7,1.7-1.4,2.6-1.9,3.6-2.2,7.5-3.5,11.4-4.7,3.9-1.1,7.9-2,11.9-2.7,8-1.3,16-2,24.1-2.2s16.1,.1,24.2,.7c4,.3,8,.8,12,1.3,4,.5,8,1.1,11.9,1.7l23.9,3.5c15.9,2.3,31.8,4.6,47.8,6.7,15.9,2.1,31.9,4.1,47.9,5.5,4,.4,8,.7,12,.9,4,.3,8,.4,12,.4,8,0,16-.2,24-.9,1.1-.1,2.2-.2,3.3-.4,2.8-.4,5.6-.9,8.4-1.7,1.9-.5,3.7-1.2,5.4-2.1s3.2-2.1,4.4-3.6c.6-.7,1-1.6,1.4-2.4,.3-.7,.2-1.6-.4-2.2-.6-.7-1.2-1.4-2-1.8-.8-.5-1.7-1-2.6-1.4-2.3-1-4.6-1.8-7-2.5-1.4-.4-2.9-.8-4.3-1.1-7.8-1.8-15.7-3.1-23.7-4.2-8-1.1-15.9-2-23.9-2.8-16-1.6-32-2.7-48.1-3.8-8-.5-16-1-24.1-1.8-4-.4-8-.8-12-1.4-4-.5-8-1.3-11.9-2.2-2-.5-3.9-1.1-5.8-1.9-.9-.4-1.9-.8-2.8-1.4-.5-.3-.9-.5-1.4-.9-.3-.2-.4-.5-.5-.8-.1-.4-.1-.7,0-1,.2-.6,.6-1,1.1-1.4,.4-.3,.9-.6,1.4-.8,.9-.5,1.9-.9,2.9-1.2,1.9-.6,3.9-1.1,5.9-1.6,7.9-1.6,16-2.2,24.1-2.4s16.1,.2,24.1,.7,16,1,24.1,1.7c16,1.2,32,2.5,48.1,3.5,8,.5,16,.9,24.1,1.2,3.2,.1,6.5,.2,9.7,.2h2.3c4-.1,8-.2,12-.5l1.5-.2,1.5-.2c1-.2,2-.4,3-.5,2-.4,3.9-.8,5.8-1.5,.9-.3,1.8-.8,2.4-1.5,.3-.3,.3-.8,.1-1.1-.3-.4-.6-.7-1-.9-1.7-1-3.6-1.8-5.5-2.2-3.9-1.1-7.8-1.9-11.8-2.4-2.7-.4-5.4-.6-8-.8-1.3-.1-2.6-.2-4-.3-16-1.2-32.1-2.2-48.1-3.1l-24.1-1.4c-4-.3-8-.8-12-1.6-1-.2-2-.4-2.9-.7-1-.3-1.9-.7-2.8-1.3-.2-.2-.4-.4-.5-.6-.1-.3-.2-.5-.1-.8,.2-.5,.6-.9,1-1.1,.9-.5,1.8-.8,2.8-1.1,4-.9,8-1.3,12-1.5s8-.3,12-.3c8,0,16.1,.2,24.1,.6-8-.3-16-.6-24.1-.5-4,0-8,.1-12,.4-4,.3-8,.5-11.9,1.5-1,.2-1.9,.6-2.8,1.1-.4,.2-.8,.6-1,1-.1,.5,.1,1,.5,1.2,.8,.6,1.8,.9,2.7,1.2,.9,.3,1.9,.5,2.9,.7,4,.7,7.9,1.3,11.9,1.5l24.1,1.3c16,.9,32.1,1.8,48.1,3,1.3,.1,2.7,.2,4,.3,2.7,.2,5.4,.5,8.1,.8,4,.5,7.9,1.4,11.8,2.4,2,.5,3.9,1.3,5.6,2.3,.5,.3,.8,.7,1.1,1.1,.5,.2,.6,.5,.6,.8Z"/>
  <path class="cls-21" d="M26.4,265.9l.1-2.2,25.9,.9s1.2,.5,1,1.4l-27-.1Z"/>
  <path class="cls-11" d="M42.6,259.3c.1,.1-.5,.4-1,.9s-.6,1.1-.7,1.1c-.2,0-.2-.8,.4-1.5,.5-.6,1.3-.7,1.3-.5Z"/>
  <path class="cls-11" d="M44.2,262.6c-.1,.1-.3-.6,.1-1.4,.4-.7,.9-1,1-.9s-.3,.5-.6,1.1c-.3,.7-.4,1.2-.5,1.2Z"/>
  <path class="cls-21" d="M11.5,277c-.6,0-1.1-.4-1.4-.8-.5-.7-.9-1.5-1.3-2.1-4.3-7-6.1-10.5-6.8-11.8-.3-.5-.3-1.1-.2-1.7v-.1l.2-.7,.4,.6,7.3,13.3,1.8,3.3Z"/>
  <g class="cls-24">
    <path class="cls-11" d="M6.6,255.3c.4,.4,.3,1-.1,1.4-.4,.4-1,.4-1.4,0s-.3-1.1,.1-1.5c.5-.3,1.1-.3,1.5,.2"/>
  </g>
  <path class="cls-11" d="M9.5,268.8c.1,.1,.7-.7,1.8-.9,1.1-.3,1.9,.2,2,.1s-.2-.2-.5-.4c-1-.4-2.1-.1-2.9,.6-.3,.4-.4,.6-.4,.6Z"/>
  <path class="cls-11" d="M10.2,271.3c.1,.1,.7-.3,1.6-.4s1.6,.3,1.7,.2-.6-.6-1.7-.6-1.7,.7-1.6,.8Z"/>
  <path class="cls-11" d="M8.1,265.5c.1,.1,1.1-.5,2.4-.7,1.4-.2,2.6,.2,2.6,.1s-1.1-.6-2.6-.4-2.5,1-2.4,1Z"/>
  <path class="cls-11" d="M9,260.5c0,.1,1-.1,2.2,.2,1.1,.3,2,.8,2.1,.7s-.7-.8-2-1c-1.4-.4-2.3,0-2.3,.1Z"/>
  <path class="cls-16" d="M30.9,257c-.5,.2-.9,.7-.8,1.3,.2,.6,.7,.9,1.3,.8,.6-.2,.9-.7,.8-1.4-.2-.6-.8-.8-1.3-.7"/>
  <path class="cls-11" d="M39.7,258.1c0,.1-.7,.2-1.3,.6s-1,1-1.1,.9,.1-.8,.9-1.3c.9-.4,1.5-.3,1.5-.2Z"/>
  <path class="cls-11" d="M39.5,254.9c-.1,.1-.7-.1-1.4,0s-1.4,.3-1.4,.2c-.1-.1,.5-.6,1.4-.6,.8-.1,1.5,.3,1.4,.4Z"/>
  <path class="cls-11" d="M10.2,255.6c0,.1,1.1-.2,2.3,.2,1.2,.4,2,1.1,2,1.1,0,0-.1-.3-.4-.6-.9-.8-2.1-1.1-3.2-.9-.5,.1-.7,.2-.7,.2Z"/>
  <path class="cls-11" d="M12.7,254.9c.1-.2,.2-.4,.2-.6,.1-.6,.1-1.1-.1-1.7-.1-.4-.3-.8-.6-1.1-.2-.2-.6-.2-.8-.1-.2,.2-.4,.4-.4,.7-.2,1.1,.4,2.3,1.5,2.7s2.3,.1,3.1-.8c.2-.2,.3-.5,.3-.8-.1-.3-.3-.5-.6-.5-.4,0-.8,.1-1.2,.3-.5,.3-1,.6-1.5,1-.3,.3-.4,.5-.4,.5,.6-.5,1.3-.9,1.9-1.3,.3-.2,.7-.3,1-.2,.2,0,.3,.1,.3,.3s-.1,.4-.2,.5c-.7,.7-1.7,.9-2.7,.6-.9-.4-1.5-1.3-1.4-2.3,.1-.2,.2-.4,.3-.5,.2-.1,.3-.1,.4,0,.3,.3,.5,.6,.5,.9,.4,.8,.5,1.6,.4,2.4Z"/>
  <path class="cls-14" d="M51.9,127.7c-.5-3.1,0-9.9,0-9.9,0,0-36.2-2.5-36.2-1.8l-2.5,15c-.1,1.8,2.6,15.3,2.6,15.3,.6,12.5-2.7,40.6-2.7,40.6L0,255.7l18.2,2.2s17.2-61.5,18.2-67.3c1-5.9,9.2-41.6,9.2-41.6,0,0,6.7-18.2,6.3-21.3Z"/>
  <path class="cls-14" d="M59.8,126.5c-.3,1.3,.3,25.7-7.2,64.9l-10.2,66.5-19.4-1.2,6.7-58.7,15.7-73.6,14.4,2.1Z"/>
  <path class="cls-21" d="M52.6,130.9c0,.1,0,.2-.1,.3,0,.2-.1,.4-.1,.8-.1,.7-.3,1.7-.6,3s-.6,2.9-1,4.7c-.4,1.9-.9,3.9-1.3,6.3v.1h-.1l-2.7,1.3,.1-.1c-1.5,8.3-3.6,19.1-6.5,30.7-1.7,6.7-3.4,13-5.1,18.6s-3.3,10.8-4.7,15.1c-1.4,4.3-2.7,7.7-3.5,10.1-.4,1.1-.8,2.1-1,2.7l-.3,.7c-.1,.1-.1,.2-.1,.3,0-.1,.1-.2,.1-.3,.1-.2,.2-.4,.3-.7l.9-2.7c.8-2.4,2-5.8,3.4-10.1s3-9.4,4.6-15.1c1.7-5.7,3.4-12,5-18.6,2.9-11.6,5.1-22.4,6.5-30.7v-.1h.1l2.7-1.2-.1,.1c.4-2.3,.9-4.4,1.4-6.2,.4-1.8,.8-3.4,1.1-4.7s.5-2.3,.6-3l.2-.8c.1-.3,.1-.4,.2-.5Z"/>
  <path class="cls-7" d="M80.4,99.4h3c.7-1.1,1.5-1.3,3-2.2,3.9-2.3,9.2-4.2,10.3-3.3,1.1,.9-.3,1.9-.7,2.1-.4,.3-4.2,1.7-4,3,.2,1.2,12.5,3.4,13,4.6,.7,1.6-.6,2.2-5.8,1.4l-1.5-.3s.8,1.3-.1,2.2c-.9,1-1.7,.5-1.7,.5,0,.7-.4,1.4-1.1,1.7-1.2,.5-1.7,0-1.7,0,0,0,.3,3-2.3,2.5-2.3-.4-4-.4-6.2-.9-.7-.2-1.3-.4-1.9-.7l-2.9-1.1c-.6-2.1,.4-8.9,.6-9.5Z"/>
  <path class="cls-19" d="M95.9,107.4c-.4-.4-.9-.8-1.4-1.1-.5-.3-1.1-.6-1.7-1-.4-.2-.7-.5-.9-.9-.1-.2-.2-.4-.2-.7s.1-.5,.3-.7c.4-.3,.8-.5,1.3-.5,.4,.1,.8,.1,1.2,.2,.6,.2,1.3,.4,1.9,.8,.4,.2,.8,.5,1.1,.8,.1,.1,.3,.2,.3,.4-.1,.1-.5-.5-1.5-1-.6-.3-1.2-.5-1.8-.7-.4-.1-.7-.2-1.1-.2-.4-.1-.7,.1-1,.4s-.3,.7-.1,1c.2,.3,.5,.6,.7,.8,.6,.4,1.2,.7,1.7,1,.4,.3,.7,.5,1,.9,.1,.4,.2,.5,.2,.5Z"/>
  <path class="cls-19" d="M91,99.8c0,.4-.1,.8-.3,1.1-.3,.9-.8,1.7-1.4,2.4-.6,.7-1.4,1.3-2.1,1.8-.3,.2-.7,.4-1.1,.4-.1-.1,1.6-.8,3-2.4,1.3-1.6,1.8-3.3,1.9-3.3Z"/>
  <path class="cls-19" d="M93.1,109.2c-.4-.1-.7-.3-.9-.5-.3-.2-.6-.4-.9-.7-.4-.3-.7-.7-.8-1.2-.2-.5-.1-1,.1-1.5,.2-.4,.6-.6,1-.6,.7-.1,1,.3,1,.3-.3-.1-.6-.2-1-.1-.3,.1-.6,.3-.8,.6-.2,.4-.2,.8-.1,1.2,.2,.4,.4,.8,.7,1,.3,.3,.6,.5,.8,.7,.6,.5,.9,.7,.9,.8Z"/>
  <path class="cls-19" d="M91.3,111.2c-.1,.1-.3-.2-.8-.5-.7-.4-1.2-.9-1.5-1.6-.2-.4-.2-.9,0-1.3,.2-.3,.4-.6,.8-.7,.2-.1,.5-.1,.7,0s.2,.2,.2,.2c-.3-.1-.6-.1-.8,.1-.3,.1-.5,.4-.6,.6-.1,.3-.1,.7,0,1,.3,.6,.8,1.1,1.4,1.6,.4,.4,.7,.6,.6,.6Z"/>
  <path class="cls-7" d="M54.2,18.8c-.4-7-6.1-12.4-13.1-12.6h-.8c-7.6,.3-10.9,7.1-10.4,14.6l1.3,26.6,2.6,2.5c4.4,4.3,12,4.2,13.8-1.7-.1-2.1-.1-3.7-.1-3.7,0,0,7.3-1,7.5-8.3,0-3.5-.4-10.8-.8-17.4Z"/>
  <path class="cls-19" d="M47.4,44.5c-3.3-.1-6.6-1.1-9.4-3,0,0,2.2,5.3,9.5,4.8l-.1-1.8Z"/>
  <path class="cls-18" d="M51.5,25.1c0,.6-.5,1-1,1-.6,.1-1-.4-1-.9,0-.6,.5-1,1-1,.5-.1,1,.3,1,.9h0Z"/>
  <path class="cls-18" d="M41.8,25.1c0,.6-.5,1-1,1-.6,.1-1-.4-1-.9,0-.6,.5-1,1-1,.6-.1,1,.3,1,.9Z"/>
  <path class="cls-18" d="M45.6,31.6c.6-.2,1.2-.3,1.8-.3,.3,0,.6-.1,.6-.3,.1-.3-.1-.6-.2-.8-.3-.7-.5-1.4-.8-2.2-1.1-3.1-1.9-5.7-1.8-5.7,.2-.1,1.1,2.4,2.2,5.6,.3,.8,.5,1.5,.8,2.2,.2,.4,.2,.7,.1,1.1-.1,.2-.3,.4-.5,.4-.2,.1-.3,.1-.5,.1-.5,0-1.1,0-1.7-.1Z"/>
  <path class="cls-23" d="M41.9,19c-.1,.3-1.3,.2-2.6,.4-1.3,.2-2.3,.5-2.6,.3-.1-.1,.1-.4,.5-.7,1.1-.7,2.6-.9,3.9-.5,.6,.1,.9,.4,.8,.5Z"/>
  <path class="cls-23" d="M52.8,19.1c-.2,.3-1.1,0-2.2-.1-1-.1-2,.2-2.2-.1-.1-.1,.1-.4,.5-.6,1.1-.6,2.4-.5,3.5,.1,.4,.3,.5,.6,.4,.7Z"/>
  <path class="cls-7" d="M30.3,26.2c-.1-.1-4.9-1.6-4.9,3.4,.1,5,5.1,3.9,5.1,3.7l-.2-7.1Z"/>
  <path class="cls-19" d="M28.9,31.5s-.1,.1-.2,.1c-.2,.1-.4,.1-.6,0-.5-.2-1-1-1-1.9,0-.4,.1-.8,.2-1.2,.1-.3,.3-.6,.6-.7,.2-.1,.4,.1,.5,.2,.1,.2,.1,.3,.1,.3,0,0,.1-.1,.1-.3-.1-.1-.1-.2-.2-.3-.2-.1-.3-.2-.5-.1-.4,.1-.7,.4-.9,.8-.2,.4-.3,.9-.3,1.4,.1,1,.6,1.9,1.3,2.1,.3,.1,.6,0,.8-.2,.1-.1,.1-.2,.1-.2Z"/>
  <path class="cls-22" d="M30.3,45.3l.7-2.1,12.4,7.4,4.2-3.5,.9,4.2,9.7,9.7,1,55.5-2,11.6-25.4-.9-8.1-46.2,5.4-24,1.2-11.7Z"/>
  <path class="cls-15" d="M30.5,44.2c-.6,.2-2.8,3.3-2.8,3.3l-13.3,4.4,2.2,57.9-7.6,29.4,34.5,7s2.8-9.1,4.6-31.6c1.9-22.5-3.5-40.5-5-44.6-2.1-5.4-12.6-25.8-12.6-25.8Z"/>
  <path class="cls-15" d="M50,50.7l9,4.6,1.9,43,.9,46.2-5.1,.7s-.8-54.2-1.2-64-7.1-30.1-7.1-30.1l-.5-3,2.1,2.6Z"/>
  <path class="cls-15" d="M69.2,95.1l-1.3-.9-4.5-31.8c-.4-2.8-2-5.6-4.3-7.1l-2.7,6.6,2.7,44.1c2.2,1.1,4.5,2,6.8,2.8,4.4,1.6,13.3,3.2,13.3,3.2l2.9-13.2-12.9-3.7Z"/>
  <path class="cls-21" d="M46.4,94.4c-.1-.2-.2-.3-.3-.5l-.7-1.4c-.6-1.2-1.4-3-2.4-5.2-2-4.4-4.8-10.5-7.9-17.2l-6.6-14.5v-.2c.6-1.2,1.2-2.4,1.7-3.5l.1,.2-3.4-.7h-.1v-.1c0-1.1,.1-2,.1-2.7v0c0,.6,0,1.5,.1,2.7l-.1-.1,3.4,.6,.2,.1-.1,.1-1.7,3.5v-.1c1.9,4.1,4.2,9.1,6.7,14.5,3.1,6.8,5.8,12.9,7.9,17.3l2.3,5.3c.3,.6,.5,1.1,.6,1.5,0,.1,.2,.2,.2,.4Z"/>
  <path class="cls-15" d="M14.9,51.9s-6.4,0-8.6,14.5c-2.3,14.5-7.2,32.6-3.9,36.6,3.4,4,38,15.4,38,15.4l4.8-13.4-27.4-12,4.7-23.4"/>
  <path class="cls-21" d="M14.9,51.9c-1,.2-1.9,.6-2.7,1.2-.8,.6-1.5,1.4-2,2.2-1.1,1.7-2,3.5-2.5,5.4-.3,.9-.5,1.9-.8,2.9s-.4,2-.5,3c-.3,2-.6,4-1,5.9-.7,4-1.5,7.9-2.2,11.8-.8,4-1.3,7.9-1.6,11.9-.1,1-.1,2,0,3s.3,1.9,.6,2.9c.2,.4,.5,.8,.8,1.1l.6,.4,.6,.4c.8,.5,1.7,1,2.6,1.4,3.6,1.7,7.3,3.2,11,4.6,7.5,2.9,15.1,5.5,22.7,8l-.3,.2,4.9-13.4,.1,.3-27.4-12-.1-.1,.1-.1,4.8-23.4-4.5,23.5-.1-.2,27.5,12,.2,.1-.1,.2-4.8,13.4-.1,.3-.2-.1c-7.6-2.5-15.2-5.2-22.7-8-3.7-1.5-7.4-2.9-11.1-4.7-.9-.4-1.8-.9-2.7-1.5l-.6-.4-.6-.5c-.4-.4-.7-.8-.9-1.3-.4-.9-.6-2-.6-3-.1-1-.1-2,0-3,.1-2,.4-4,.7-6,.3-2,.6-4,1-5.9,.7-4,1.5-7.9,2.3-11.8,.4-2,.7-4,1-5.9,.2-1,.4-2,.6-3s.5-2,.8-2.9c.6-1.9,1.5-3.7,2.6-5.4,.6-.8,1.3-1.6,2.1-2.2,.6-.8,1.5-1.2,2.5-1.3Z"/>
  <path class="cls-21" d="M59.1,63.9c.1,.2,.1,.3,.1,.4,.1,.3,.1,.7,.2,1.3,.2,1.1,.3,2.7,.5,4.6,.4,3.9,.9,9.3,1.2,15.3s.5,11.5,.5,15.4v4.7c0,.5,0,.9-.1,1.3,0,.2,0,.3-.1,.5,0-.2-.1-.3-.1-.5,0-.3,0-.7-.1-1.3-.1-1.1-.1-2.7-.1-4.6-.1-4-.3-9.4-.6-15.4-.4-6-.8-11.4-1.1-15.3-.2-1.9-.3-3.5-.4-4.6-.1-.5-.1-.9-.1-1.2,.2-.3,.2-.4,.2-.6Z"/>
  <path class="cls-21" d="M23.3,64.1c-.2-.5-.4-1-.5-1.6-.4-1.3-.9-2.5-1.6-3.7-.6-1.2-1.4-2.3-2.2-3.3-.4-.4-.7-.8-1-1.3,.5,.3,.9,.7,1.3,1.1,.9,1,1.7,2.1,2.3,3.3,.6,1.2,1.1,2.4,1.5,3.8,.1,.6,.2,1.1,.2,1.7Z"/>
  <path class="cls-21" d="M65.4,103.9c-.1-.5-.1-.9-.1-1.4,0-1.1,.2-2.3,.6-3.4s1.1-2.1,2-2.8c.4-.3,.8-.5,1.4-.5-.4,.2-.8,.5-1.2,.7-.9,.7-1.5,1.7-1.9,2.7-.4,1.1-.6,2.2-.6,3.3-.1,.5-.1,.9-.2,1.4Z"/>
  <path class="cls-21" d="M48.9,51.9c-.2,.3-.5,.5-.7,.7l-2,1.7-.2,.1-.1-.1-2.4-3.5h.3l-1.4,2.8-.9,1.9-.1,.2-.2-.1c-2.1-1.4-4-2.6-5.4-3.5l-1.6-1c-.2-.1-.4-.3-.5-.4,.2,.1,.4,.2,.6,.3l1.6,1c1.4,.8,3.2,2,5.4,3.4l-.3,.1,.9-1.9,1.4-2.8,.1-.3,.2,.3,2.4,3.5-.2-.1,2.1-1.6c.4-.3,.6-.5,1-.7Z"/>
  <path class="cls-21" d="M52.5,128.4v-.8c.1-.5,.1-1.3,.1-2.3,.1-1,.2-2.2,.2-3.6,.1-1.4,.2-3,.2-4.8,0-.9,.1-1.8,.1-2.8v-3c0-2.1-.1-4.3-.2-6.6-.2-4.7-.6-9.8-1.2-15.2-.7-5.2-1.5-10.3-2.4-14.9-.5-2.3-.9-4.5-1.4-6.5-.2-1-.5-2-.7-2.9s-.5-1.8-.7-2.7c-.4-1.7-.9-3.2-1.3-4.6-.4-1.4-.7-2.5-1-3.4l-.5-2.3-.2-.6c0-.1-.1-.2-.1-.2q.1,.1,.1,.2c.1,.2,.1,.3,.2,.6,.2,.5,.4,1.2,.7,2.2,.3,.9,.7,2.1,1,3.4,.4,1.4,.8,2.9,1.3,4.6,.2,.8,.5,1.8,.7,2.7,.3,.9,.5,1.9,.7,2.9,.5,2,.9,4.2,1.4,6.5,.9,4.6,1.7,9.7,2.3,15.1s1,10.5,1.2,15.2c.1,2.3,.2,4.6,.1,6.7v3c0,1-.1,1.9-.1,2.8,0,1.8-.2,3.4-.2,4.8-.1,1.4-.2,2.6-.3,3.6s-.2,1.7-.2,2.3l-.1,.6c.3-.1,.3,0,.3,0Z"/>
  <path class="cls-7" d="M45.2,105.2c.1,.1,5.6,.3,7.3,.6,1.7,.4,5.7,1.4,7,2.3s3.9,4.2,3.2,4.7c-.5,.4-1.4,.4-1.9,0-.4-.3-3.5-2.8-3.5-2.8,0,0-1.9-.6-2-.2-.1,.5,4.7,3.1,4,4.2-.8,1.1-2.8,.8-2.8,.8,0,0,.6,1.9-.1,2.8-.6,.9-2.2,1.4-2.2,1.4,.3,.9-.2,1.9-1,2.2-1.1,.5-2.9-.7-2.9-.7l-7.3-3.8-2.1-.1,4.3-11.4Z"/>
  <path class="cls-19" d="M42.9,33.7c1,.2,2,.5,2.9,.8l1,.4c-.3,.6-.6,1.5-1.1,1.8-.6,.4-1.3,.4-1.9,.1-.4-.4-.7-.8-.7-1.4-.2-.6-.2-1.2-.2-1.7Z"/>
  <path class="cls-18" d="M46.5,35.5c-.1,0-.1,.2-.2,.4-.2,.3-.5,.6-.8,.7-.5,.2-1.1,.2-1.6-.1-.5-.4-.8-1-.8-1.7,0-.4,0-.8,.1-1.2l-.2,.1c1.1,.4,2.1,.6,2.8,.8,.4,.1,.8,.2,1.1,.3-.4-.2-.7-.3-1.1-.4-.7-.3-1.7-.6-2.8-.9l-.2-.1-.1,.2c-.1,.4-.1,.8-.1,1.3-.1,1,.7,2,1.7,2.1,.4,.1,.7-.1,1-.2,.4-.2,.7-.5,.8-.8,.3-.2,.4-.3,.4-.5Z"/>
  <path class="cls-21" d="M31.5,16.3s3.5-2.8,3.5-5.6c0,0,1.9,1.1,3.6,.4,1.7-.7,2.2-1.3,6.2,.4s-4.4-4.6-6.2-4c-1.8,.7-7.6,1.6-7.1,8.8Z"/>
  <path class="cls-21" d="M63,9.8c-.1-.3-.4-.5-.6-.6-.7-.2-1.3-.2-1.9-.1-1.6,.2-3.2-.1-4.7-.6,.5-.3,.9-.7,1.2-1.1,.8-.9,1-2.1,.6-3.2-.1-.2-.3-.4-.5-.4-.3-.1-.6,.3-.8,.6-.5,.9-1.4,1.4-2.4,1.4-.7,.1-1.4-.1-2-.4l-.1-.1-.8-.7c-2.1-1.7-3.9-2.8-5.6-3.2-2.6-.7-6.7-.7-9.2,.3-2.5,1-4.5,3.2-4.6,5.8-1.6-1-3.7-.8-5.4,.1h-.1c-1.9,.9-2.7,3.1-3.1,5.1,0,.1-.1,.2-.1,.3-.5,1.1-1.3,2.1-2.3,2.8-.2,.1-.4,.3-.4,.5,0,.3,.2,.4,.4,.5,.5,.3,1,.5,1.7,.5-.2,.5-.3,1-.5,1.4s-.4,.9-.2,1.2c.2,.3,.6,.4,.9,.3s.6-.3,.8-.5c-.2,.5-.3,1.1-.5,1.6,.7,.1,1.4-.1,2.1-.4,.6,1.8,1.2,3.6,2,5.3,.8-.1,1.6-.4,2.1,0,.7,.5,1.2,1.7,2.2,1.1,.5-.3,.9-1.6,1-2.1,.8-4,.8-8.2-.1-12.2,.7-.9,1.6-1.7,2.6-2.3l-.1,.1c2-.9,4.2-1.9,6.2-1.1,1.6,.6,2.7,2,3.9,3.2,2.2,2.1,5.3,3.1,8.3,2.9,.5,2.2,.6,5,.9,7l1.6-3.5c.1-.3,.2-.5,.3-.8l.1-.1c.1-.4,.3-.8,.5-1.2,.6,.4,1.4,.3,1.8-.4,.3-.5,.3-1.1-.1-1.6-.2-.2-.4-.4-.7-.6,.6,.4,1.3,.6,2,.3s1-1,.9-1.7c-.1-.5-.5-.8-.9-1,.9,0,1.8-.3,2.6-.8,.8-.4,1.2-.9,1-1.6Z"/>
  <path class="cls-20" d="M34.1,8.1c-.3,.2-.5,.5-.7,.7-.5,.8-.8,1.7-.8,2.6-.1,.6-.1,1.3,0,1.9,.1,.7,.2,1.4,.4,2.1,.2,.8,.3,1.6,.3,2.4,.1,.4,.1,.8,0,1.3,0,.5-.2,.9-.4,1.3-.2,.3-.6,.5-1,.5-.4-.1-.7-.2-1-.4-.5-.5-.8-1.1-.9-1.8h.2c-.2,.6-.4,1.1-.7,1.6-.3,.5-.8,.8-1.4,.9-.3,.1-.5,.1-.8-.1-.2-.1-.4-.3-.6-.5s-.2-.4-.2-.6,.1-.4,.2-.6l.1,.1c-.4,.5-.9,1-1.5,1.4-.2,.1-.3,.2-.5,.3q-.1,.1-.2,.1,.1-.1,.2-.1c.1-.1,.3-.2,.5-.3,.6-.4,1-.8,1.4-1.4l.1,.1c-.2,.4-.2,.8,.1,1.1,.1,.2,.3,.3,.5,.4s.5,.1,.7,.1c.5-.1,.9-.5,1.3-.9,.3-.5,.5-1,.7-1.6l.1-.3,.1,.3c.2,.6,.4,1.2,.9,1.7,.3,.2,.6,.4,.9,.4,.3,.1,.7-.1,.8-.4,.2-.4,.3-.8,.4-1.2,.1-.4,.1-.8,0-1.2-.1-.8-.2-1.6-.3-2.4-.2-.8-.3-1.5-.3-2.1-.1-.6-.1-1.2,0-1.9,.1-.9,.4-1.8,.9-2.6-.1-.5,.2-.7,.5-.9Z"/>
  <path class="cls-20" d="M57.5,12.7h0l-.2,.2c-.1,.1-.2,.2-.3,.3-.2,.1-.3,.2-.4,.3-.9,.6-2,.9-3.1,.9-1.6,.1-3.2-.3-4.6-1.1-1.7-1-3.1-2.3-4.3-4-.6-.8-1.1-1.7-1.7-2.5-.5-.8-1.1-1.5-1.9-2-.6-.5-1.4-.9-2.2-1-.4-.1-.7-.1-1.1,0-.4,.1-.7,.2-1,.3-.5,.3-1,.6-1.4,1.1-.3,.4-.5,.7-.7,1.1s-.2,.7-.3,1.1v-.3c.1-.3,.1-.6,.2-.9,.2-.4,.4-.8,.7-1.2,.4-.5,.9-.9,1.5-1.1,.3-.2,.7-.3,1-.3,.4-.1,.8-.1,1.1,0,.8,.2,1.7,.5,2.3,1,.7,.6,1.4,1.3,1.9,2.1,.6,.8,1.1,1.7,1.7,2.4,1.1,1.6,2.6,2.9,4.2,3.9,1.4,.8,2.9,1.2,4.5,1.1,1-.1,2.1-.3,3-.8,.5-.1,.8-.3,1.1-.6Z"/>
  <path class="cls-20" d="M57.8,9.4c-.1,.1-.2,.2-.3,.2-.2,.2-.5,.4-.7,.5-.4,.2-.8,.4-1.2,.5-.5,.2-1,.3-1.6,.4-.5,.1-1,.1-1.6,.1-.4,0-.9-.1-1.3-.2-.3-.1-.6-.2-.8-.3-.1-.1-.2-.1-.3-.2,0-.1,.4,.1,1.1,.3,.4,.1,.8,.1,1.2,.2,.5,0,1,0,1.6-.1,.5-.1,1-.2,1.5-.4,.4-.2,.8-.3,1.2-.5,.8-.3,1.2-.5,1.2-.5Z"/>
  <path class="cls-10" d="M423.5,156.2c3.5,2,6.3,7.9,8.2,11.2,2.2-3.7,5.3-9.5,8.9-11.4l4.1-24.1c-.1,0-31.9,18.2-21.2,24.3Z"/>
  <path class="cls-10" d="M432.4,111.2c13.1,0,23.7,10.4,23.7,23.3s-10.6,23.3-23.7,23.3-23.7-10.4-23.7-23.3c0-4.1,1.1-8.1,3.2-11.6,4.1-7.3,12-11.7,20.5-11.7Zm0-3.8c-15.2,0-27.5,12.1-27.5,27,0,2.4,.3,4.7,.9,7.1,3.2,11.8,14.1,20.1,26.6,20.1,15.2,0,27.5-12.1,27.5-27s-12.4-27.2-27.5-27.2Z"/>
  <path class="cls-9" d="M432.4,157.7c13.1,0,23.7-10.4,23.7-23.3s-10.6-23.3-23.7-23.3-23.7,10.4-23.7,23.3,10.6,23.3,23.7,23.3Z"/>
  <path class="cls-14" d="M166.8,160c4.3,2.5,7.7,9.6,9.9,13.6,2.7-4.5,6.5-11.6,10.8-13.9l5-29.3c0,.1-38.7,22.2-25.7,29.6Z"/>
  <path class="cls-14" d="M176.7,121.8c11.5,0,20.7,9.3,20.7,20.7s-9.3,20.7-20.7,20.7-20.7-9.3-20.7-20.7c0-3.6,.9-7.2,2.8-10.3,3.6-6.5,10.5-10.4,17.9-10.4Zm0-3.4c-13.3-.1-24.1,10.7-24.1,24-.1,13.3,10.7,24.1,24,24.1,13.3,.1,24.1-10.7,24.1-24,0-8.6-4.6-16.6-12-20.9-3.7-2-7.8-3.2-12-3.2Z"/>
  <path class="cls-9" d="M176.7,163.1c11.4,0,20.7-9.3,20.7-20.7s-9.3-20.7-20.7-20.7-20.7,9.3-20.7,20.7,9.3,20.7,20.7,20.7Z"/>
  <path class="cls-22" d="M361.2,124.5c2.1,1.2,3.7,4.7,4.9,6.7,1.3-2.2,3.2-5.7,5.3-6.8l2.4-14.4c.1,0-18.9,10.8-12.6,14.5Z"/>
  <path class="cls-22" d="M366.4,64.4c15.3,0,27.6,12.2,27.6,27.4s-12.3,27.4-27.6,27.4-27.6-12.2-27.6-27.4c0-4.8,1.3-9.6,3.7-13.8,4.9-8.4,14-13.6,23.9-13.6Zm0-4.5c-17.7,0-32,14.4-32,31.9s14.5,31.8,32.2,31.8,32-14.4,32-31.9c0-11.4-6.2-22-16.2-27.6-4.8-2.6-10.3-4.2-16-4.2Z"/>
  <path class="cls-9" d="M387.3,107c8-12.5,4.9-29.5-7-37.9s-28.1-5.1-36.1,7.4-4.9,29.5,7,37.9c11.9,8.4,28.1,5.1,36.1-7.4Z"/>
  <path class="cls-3" d="M176.7,173.7v2.1"/>
  <path class="cls-6" d="M176.7,180.5v25.6"/>
  <path class="cls-3" d="M176.7,208.4v2.1"/>
  <path class="cls-4" d="M431.6,165.3v2.1"/>
  <path class="cls-5" d="M431.6,172v25.6"/>
  <path class="cls-4" d="M431.6,200v2.1"/>
  <path class="cls-2" d="M366.1,131.3v1.9"/>
  <path class="cls-1" d="M366.1,137.1v21.7"/>
  <path class="cls-2" d="M366.1,160.8v1.9"/>
  <g class="cls-25">
    <path class="cls-14" d="M166.9,130.9v5.3c0,1.2,.4,1.5,.8,1.5,.5,0,.8-.3,.8-1.5v-5.3h1.6v5c0,2.1-.8,3.2-2.3,3.2-1.7,0-2.4-1.2-2.4-3.2v-5h1.5Z"/>
    <path class="cls-14" d="M172,130.9h1.6v5.5c0,2.3-1.1,2.7-2.3,2.7-.3,0-.6,0-.8-.1l.1-1.3c.2,0,.3,.1,.5,.1,.5,0,.8-.2,.8-1.2v-5.7h.1Z"/>
    <path class="cls-14" d="M176.5,130.9v8.1h-1.6v-8.1h1.6Z"/>
    <path class="cls-14" d="M179.1,137.2l-.4,1.8h-1.5l1.8-8.1h1.9l1.6,8.1h-1.5l-.3-1.8h-1.6Zm1.3-1.3l-.3-1.7c-.1-.5-.2-1.3-.3-1.8h0c-.1,.5-.2,1.4-.3,1.8l-.3,1.7h1.2Z"/>
    <path class="cls-14" d="M183.4,139v-8.1h1.4l1.2,3.2c.2,.6,.6,1.7,.9,2.4h0c0-.9-.2-2.3-.2-3.7v-1.8h1.4v8.1h-1.4l-1.2-3.1c-.3-.7-.6-1.7-.8-2.4h0c0,.8,.1,2.1,.1,3.7v1.8h-1.4v-.1Z"/>
  </g>
  <g class="cls-25">
    <path class="cls-14" d="M168,150.6c0-.8-.1-1.8-.1-2.7h0c-.1,.9-.4,1.9-.5,2.5l-.7,2.9h-1.1l-.7-2.8c-.2-.6-.4-1.7-.5-2.5h0c0,.9-.1,1.9-.1,2.7l-.1,2.8h-1.4l.6-8.1h1.7l.6,2.9c.2,1,.4,1.9,.6,2.8h0c.1-.9,.3-1.8,.5-2.8l.6-2.9h1.7l.5,8.1h-1.4l-.2-2.9Z"/>
    <path class="cls-14" d="M172,151.6l-.4,1.8h-1.5l1.8-8.1h1.9l1.6,8.1h-1.5l-.3-1.8h-1.6Zm1.3-1.3l-.3-1.7c-.1-.5-.2-1.3-.3-1.8h0c-.1,.5-.2,1.4-.3,1.8l-.3,1.7h1.2Z"/>
    <path class="cls-14" d="M176,151.8c.3,.2,.9,.3,1.3,.3,.7,0,1.1-.4,1.1-.9,0-.6-.4-.9-1-1.3-1.1-.7-1.5-1.5-1.5-2.3,0-1.3,.9-2.4,2.6-2.4,.5,0,1,.1,1.3,.3l-.3,1.4c-.2-.1-.6-.3-1-.3-.7,0-1,.4-1,.8,0,.5,.2,.7,1.1,1.3,1.1,.6,1.5,1.5,1.5,2.3,0,1.5-1.1,2.4-2.7,2.4-.6,0-1.3-.2-1.5-.3l.1-1.3Z"/>
    <path class="cls-14" d="M182.4,145.3v5.3c0,1.2,.4,1.5,.8,1.5,.5,0,.8-.3,.8-1.5v-5.3h1.6v5c0,2.1-.8,3.2-2.3,3.2-1.7,0-2.4-1.2-2.4-3.2v-5h1.5Z"/>
    <path class="cls-14" d="M186.9,145.3h1.6v3.6h0c.1-.3,.3-.7,.4-1l1.1-2.6h1.7l-1.8,3.5,1.8,4.6h-1.7l-1.2-3.3-.4,.7v2.7h-1.6v-8.2h.1Z"/>
  </g>
  <g class="cls-25">
    <path class="cls-10" d="M413.3,126.5h1.3v3h0c.1-.3,.2-.6,.3-.9l.9-2.2h1.4l-1.5,2.9,1.5,3.8h-1.4l-1-2.8-.3,.5v2.2h-1.3v-6.5h.1Z"/>
    <path class="cls-10" d="M420.7,130.3h-1.5v1.8h1.7v1.1h-3v-6.7h2.9v1.1h-1.6v1.5h1.5v1.2Z"/>
    <path class="cls-10" d="M421.8,126.5h1.3v5.6h1.7v1.1h-3v-6.7Z"/>
    <path class="cls-10" d="M426.7,126.5v4.4c0,1,.3,1.3,.6,1.3,.4,0,.6-.3,.6-1.3v-4.4h1.3v4.1c0,1.7-.6,2.7-1.9,2.7-1.4,0-2-1-2-2.7v-4.2h1.4v.1Z"/>
    <path class="cls-10" d="M430.4,126.5h1.3v5.6h1.7v1.1h-3v-6.7Z"/>
    <path class="cls-10" d="M435.3,126.5v4.4c0,1,.3,1.3,.6,1.3,.4,0,.6-.3,.6-1.3v-4.4h1.3v4.1c0,1.7-.7,2.7-1.9,2.7-1.4,0-2-1-2-2.7v-4.2h1.4v.1Z"/>
    <path class="cls-10" d="M438.9,131.9c.3,.1,.7,.3,1.1,.3,.6,0,.9-.3,.9-.8s-.3-.7-.9-1.1c-.9-.6-1.3-1.3-1.3-1.9,0-1.1,.7-2,2.1-2,.4,0,.9,.1,1.1,.2l-.2,1.1c-.2-.1-.5-.2-.9-.2-.6,0-.8,.3-.8,.7s.2,.6,.9,1c.9,.5,1.2,1.2,1.2,1.9,0,1.2-.9,2-2.2,2-.5,0-1.1-.1-1.3-.3l.3-.9Z"/>
    <path class="cls-10" d="M444,131.7l-.3,1.5h-1.3l1.5-6.7h1.6l1.3,6.7h-1.3l-.3-1.5h-1.2Zm1.1-1l-.2-1.4c-.1-.4-.2-1.1-.2-1.5h0c-.1,.5-.2,1.1-.2,1.5l-.3,1.4h.9Z"/>
    <path class="cls-10" d="M447.5,133.2v-6.7h1.2l1,2.6c.2,.5,.5,1.4,.7,2h0c0-.7-.1-1.9-.1-3.1v-1.5h1.1v6.7h-1.2l-1-2.6c-.2-.6-.5-1.4-.7-2h0c0,.7,.1,1.7,.1,3.1v1.5h-1.1Z"/>
  </g>
  <g class="cls-25">
    <path class="cls-10" d="M416,138.6c.4-.1,.9-.1,1.4-.1,.8,0,1.4,.1,1.8,.5,.4,.3,.6,.9,.6,1.5,0,.7-.2,1.2-.6,1.6-.4,.4-1.1,.6-1.6,.6h-.3v2.5h-1.3v-6.6Zm1.3,3h.2c.7,0,1-.5,1-1.1s-.2-1-.8-1h-.3v2.1h-.1Z"/>
    <path class="cls-10" d="M420.5,138.6c.4-.1,.9-.1,1.4-.1,.7,0,1.4,.1,1.8,.5s.5,.8,.5,1.4c0,.7-.3,1.4-1,1.7h0c.5,.2,.7,.6,.8,1.3,.1,.8,.3,1.6,.4,1.8h-1.4c-.1-.2-.2-.9-.3-1.6-.1-.8-.3-1.1-.8-1.1h-.2v2.7h-1.3v-6.6h.1Zm1.4,2.9h.2c.6,0,.9-.5,.9-1,0-.6-.2-1-.8-1h-.3v2h0Z"/>
    <path class="cls-10" d="M429.2,141.7c0,2.5-.9,3.6-2.2,3.6-1.5,0-2.1-1.6-2.1-3.5,0-1.8,.7-3.4,2.2-3.4,1.7,0,2.1,1.8,2.1,3.3Zm-2.9,.2c0,1.5,.3,2.3,.8,2.3s.8-1,.8-2.4c0-1.2-.2-2.2-.8-2.2-.5-.1-.8,.8-.8,2.3Z"/>
    <path class="cls-10" d="M433.8,145c-.3,.1-.9,.2-1.4,.2-.8,0-1.3-.2-1.8-.7-.6-.6-.9-1.6-.9-2.7,0-2.4,1.4-3.5,2.9-3.5,.5,0,.9,.1,1.1,.2l-.2,1.1c-.2-.1-.4-.2-.8-.2-.9,0-1.6,.6-1.6,2.4,0,1.6,.6,2.2,1.2,2.2h.3v-1.6h-.6v-1.1h1.8v3.7Z"/>
    <path class="cls-10" d="M434.8,138.6c.4-.1,.9-.1,1.4-.1,.7,0,1.4,.1,1.8,.5s.5,.8,.5,1.4c0,.7-.3,1.4-1,1.7h0c.5,.2,.7,.6,.8,1.3,.1,.8,.3,1.6,.4,1.8h-1.4c-.1-.2-.2-.9-.3-1.6-.1-.8-.3-1.1-.8-1.1h-.2v2.7h-1.3v-6.6h.1Zm1.3,2.9h.2c.6,0,.9-.5,.9-1,0-.6-.2-1-.8-1h-.3v2h0Z"/>
    <path class="cls-10" d="M440.5,143.7l-.3,1.5h-1.2l1.5-6.7h1.6l1.3,6.7h-1.4l-.3-1.5h-1.2Zm1.1-1l-.2-1.4c-.1-.4-.2-1.1-.2-1.5h0c-.1,.5-.2,1.1-.2,1.5l-.3,1.4h.9Z"/>
    <path class="cls-10" d="M448.2,142.9c0-.6-.1-1.5-.1-2.2h0c-.1,.7-.3,1.5-.4,2.1l-.6,2.4h-.9l-.6-2.4c-.1-.5-.3-1.4-.4-2.1h0c0,.7-.1,1.6-.1,2.2l-.1,2.3h-1.1l.5-6.7h1.4l.5,2.4c.2,.8,.4,1.6,.5,2.4h0c.1-.8,.3-1.5,.4-2.4l.5-2.4h1.4l.4,6.7h-1.2l-.1-2.3Z"/>
  </g>
  <g class="cls-25">
    <path class="cls-22" d="M361.6,76.3v4.8c0,1.1,.3,1.4,.7,1.4s.7-.3,.7-1.4v-4.8h1.4v4.6c0,1.9-.7,2.9-2.1,2.9-1.6,0-2.2-1.1-2.2-2.9v-4.6h1.5Z"/>
    <path class="cls-22" d="M366.3,76.3h1.5v5c0,2.1-1,2.5-2.1,2.5-.3,0-.6,0-.7-.1l.1-1.2c.1,0,.3,.1,.5,.1,.4,0,.8-.2,.8-1.1v-5.2h-.1Z"/>
    <path class="cls-22" d="M370.4,76.3v7.4h-1.4v-7.4h1.4Z"/>
  </g>
  <g class="cls-25">
    <path class="cls-22" d="M343.6,88.3h1.4v3.3h0c.1-.3,.2-.6,.4-1l1-2.4h1.6l-1.7,3.2,1.7,4.2h-1.6l-1.1-3.1-.3,.6v2.5h-1.4v-7.3Z"/>
    <path class="cls-22" d="M352.9,91.9c0,2.8-1,3.9-2.4,3.9-1.7,0-2.3-1.8-2.3-3.8s.8-3.8,2.4-3.8c1.8,0,2.3,2,2.3,3.7Zm-3.3,.1c0,1.7,.3,2.5,.9,2.5s.8-1.1,.8-2.6c0-1.3-.2-2.5-.8-2.5-.5,0-.9,1-.9,2.6Z"/>
    <path class="cls-22" d="M358.3,93.1c0-.7-.1-1.7-.1-2.5h0c-.1,.8-.3,1.7-.5,2.3l-.6,2.7h-1l-.6-2.6c-.1-.6-.3-1.5-.5-2.3h0c0,.8-.1,1.7-.1,2.5l-.1,2.6h-1.2l.5-7.4h1.5l.6,2.7c.2,.9,.4,1.8,.5,2.6h0c.1-.8,.3-1.7,.5-2.6l.6-2.7h1.5l.5,7.4h-1.3l-.2-2.7Z"/>
    <path class="cls-22" d="M360.8,88.4c.4-.1,1-.1,1.5-.1,.9,0,1.5,.1,2,.6,.4,.4,.6,1,.6,1.6,0,.8-.2,1.4-.6,1.8-.5,.5-1.2,.7-1.8,.7h-.3v2.8h-1.4v-7.4h0Zm1.4,3.4h.2c.7,0,1.1-.5,1.1-1.2,0-.6-.3-1.2-.9-1.2-.1,0-.3,0-.4,.1v2.3h0Z"/>
    <path class="cls-22" d="M369,92.4h-1.7v2h1.9v1.3h-3.4v-7.4h3.2v1.3h-1.8v1.7h1.7v1.1h.1Z"/>
    <path class="cls-22" d="M371,89.6h-1.3v-1.3h4.1v1.3h-1.3v6.1h-1.5v-6.1Z"/>
    <path class="cls-22" d="M377.6,92.4h-1.7v2h1.9v1.3h-3.4v-7.4h3.2v1.3h-1.8v1.7h1.7v1.1h.1Z"/>
    <path class="cls-22" d="M378.8,95.7v-7.4h1.3l1.1,2.9c.2,.6,.6,1.5,.8,2.2h0c0-.8-.1-2.1-.1-3.4v-1.6h1.3v7.4h-1.3l-1.1-2.8c-.2-.6-.6-1.6-.7-2.2h0c0,.7,.1,1.9,.1,3.4v1.7h-1.4v-.2Z"/>
    <path class="cls-22" d="M384.3,94.2c.3,.2,.8,.3,1.2,.3,.7,0,1-.4,1-.8,0-.5-.3-.8-1-1.2-1-.6-1.4-1.4-1.4-2.1,0-1.2,.8-2.2,2.3-2.2,.5,0,.9,.1,1.2,.3l-.2,1.2c-.2-.1-.5-.3-.9-.3-.6,0-.9,.4-.9,.8s.2,.7,1,1.2c1,.6,1.3,1.3,1.3,2.1,0,1.4-1,2.2-2.5,2.2-.6,0-1.2-.2-1.4-.3l.3-1.2Z"/>
    <path class="cls-22" d="M390.3,88.3v7.4h-1.4v-7.4h1.4Z"/>
  </g>
  <g class="cls-25">
    <path class="cls-22" d="M358.5,100.4c.4-.1,1-.1,1.5-.1,.9,0,1.5,.1,2,.6,.4,.4,.6,1,.6,1.6,0,.8-.2,1.4-.6,1.8-.5,.5-1.2,.7-1.8,.7h-.3v2.8h-1.4v-7.4h0Zm1.4,3.4h.2c.7,0,1.1-.5,1.1-1.2,0-.6-.3-1.2-.9-1.2-.1,0-.3,0-.4,.1v2.3h0Z"/>
    <path class="cls-22" d="M363.5,100.4c.4-.1,1-.1,1.5-.1,.9,0,1.5,.1,2,.6,.4,.4,.6,1,.6,1.6,0,.8-.2,1.4-.6,1.8-.5,.5-1.2,.7-1.8,.7h-.3v2.8h-1.4v-7.4h0Zm1.5,3.4h.2c.7,0,1.1-.5,1.1-1.2,0-.6-.3-1.2-.9-1.2-.1,0-.3,0-.4,.1v2.3h0Z"/>
    <path class="cls-22" d="M372.7,107.5c-.3,.1-1,.3-1.5,.3-.8,0-1.5-.2-2-.7-.6-.6-1-1.7-1-3,0-2.7,1.6-3.8,3.1-3.8,.6,0,1,.1,1.2,.2l-.3,1.2c-.2-.1-.5-.2-.8-.2-1,0-1.8,.7-1.8,2.6,0,1.8,.7,2.4,1.4,2.4h.3v-1.8h-.7v-1.2h2v4h.1Z"/>
  </g>
</svg>